<svg xmlns="http://www.w3.org/2000/svg" xmlns:xlink="http://www.w3.org/1999/xlink" width="1440" height="900" viewBox="0 0 1440 900">
  <defs>
    <rect id="rect-3" width="16" height="16" x="884" y="473"/>
    <mask id="mask-4" maskContentUnits="userSpaceOnUse" maskUnits="userSpaceOnUse">
      <rect width="1440" height="900" x="0" y="0" fill="black"/>
      <use fill="white" xlink:href="#rect-3"/>
    </mask>
    <rect id="rect-7" width="16" height="16" x="884" y="547"/>
    <mask id="mask-8" maskContentUnits="userSpaceOnUse" maskUnits="userSpaceOnUse">
      <rect width="1440" height="900" x="0" y="0" fill="black"/>
      <use fill="white" xlink:href="#rect-7"/>
    </mask>
  </defs>
  <rect width="1440" height="900" x="0" y="0" fill="rgb(255,255,255)"/>
  <g>
    <path fill="rgb(247,247,249)" fill-rule="evenodd" d="M542 459.07818h356c12.14213054 0 22 9.85786946 22 22s-9.85786946 22-22 22H542c-12.14213054 0-22-9.85786946-22-22s9.85786946-22 22-22z"/>
    <g>
      <use fill="none" xlink:href="#rect-3"/>
      <g mask="url(#mask-4)">
        <path fill="rgb(19,28,43)" fill-opacity=".4" fill-rule="evenodd" d="M892 473c2.76000977 0 5 2.23999023 5 5 0 1.51998901-.67700195 2.88000488-1.75 3.7999878C897.47998047 482.97000121 899 485.30700683 899 488c0 .55200195-.44799805 1-1 1s-1-.44799805-1-1c0-2.76000977-2.23999023-5-5-5s-5 2.23999023-5 5c0 .55200195-.44799805 1-1 1s-1-.44799805-1-1c0-2.69400024 1.52001953-5.02999878 3.75-6.2000122C887.67797852 480.88198852 887 479.519989 887 478c0-2.76000977 2.23999023-5 5-5zm-3 5c0 1.65701294 1.34301758 3 3 3s3-1.34298706 3-3-1.34301758-3-3-3-3 1.34298706-3 3z"/>
      </g>
    </g>
    <text font-size="0" style="white-space:pre">
      <tspan x="540" y="486" fill="rgb(19,28,43)" font-family="Athiti" font-size="16" font-weight="400" style="white-space:pre;text-transform:none">Username</tspan>
    </text>
    <path fill="rgb(247,247,249)" fill-rule="evenodd" d="M542 533.07818h356c12.14213054 0 22 9.85786946 22 22s-9.85786946 22-22 22H542c-12.14213054 0-22-9.85786946-22-22s9.85786946-22 22-22z"/>
    <g opacity=".4">
      <use fill="none" xlink:href="#rect-7"/>
      <g mask="url(#mask-8)">
        <path fill="rgb(19,28,43)" fill-rule="evenodd" d="M885 561c0 1.10498047.89501953 2 2 2h10c1.10498047 0 2-.89501953 2-2v-8c0-1.10498047-.89501953-2-2-2h-1c0-2.21002197-1.78997803-4-4-4-2.21002197 0-4 1.78997803-4 4h-1c-1.10498047 0-2 .89501953-2 2v8zm5-10c0-1.10498047.89501953-2 2-2s2 .89501953 2 2h-4zm-3 2v8h10v-8h-10zm7 4c0-1.10498047-.89501953-2-2-2s-2 .89501953-2 2 .89501953 2 2 2 2-.89501953 2-2z"/>
      </g>
    </g>
    <text font-size="0" style="white-space:pre">
      <tspan x="540" y="560" fill="rgb(19,28,43)" font-family="Athiti" font-size="16" font-weight="400" style="white-space:pre;text-transform:none">Password</tspan>
    </text>
    <path fill="rgb(249,199,61)" fill-rule="evenodd" d="M542 637.07818h356c12.14213054 0 22 9.85786946 22 22s-9.85786946 22-22 22H542c-12.14213054 0-22-9.85786946-22-22s9.85786946-22 22-22z"/>
    <text font-size="0" style="white-space:pre">
      <tspan x="700" y="664.078" fill="rgb(19,28,43)" font-family="Athiti" font-size="16" font-weight="600" style="white-space:pre;text-transform:none">Login</tspan>
    </text>
    <text font-size="0" style="white-space:pre">
      <tspan x="686.5" y="719.078" fill="rgb(19,28,43)" font-family="Athiti" font-size="16" font-weight="300" style="white-space:pre;text-transform:none">ลืมรหัสผ่าน</tspan>
    </text>
  </g>
  <g>
    <path fill="rgb(249,199,61)" fill-rule="evenodd" d="M702.28411296 235.3687203s-14.275881-15.79539187-4.62964257-21.17635647c7.88250526-4.39709707 26.59566068-6.94036952 38.52442995-4.28730004 2.6690777.59361125 5.59014577 1.58959707 7.33813833 2.545196 9.56027099 5.22653408-15.06048089 51.8766974-22.34891432 62.542102 0 0-6.98744758-26.46079645-2.03535131-45.062512 0 0-3.3602167 15.91491756 3.15629802 35.97896593.54270419 1.67097013 1.8849286 1.7801753 2.76870919.31994357 7.41846724-12.25716933 15.66970953-28.61449325 18.20482195-41.23292523 2.49379514-12.41277617-5.54725441-12.74780471-9.14462984-13.04462883-26.08566447-2.15237253-38.22849883 12.69094936-31.8338594 23.41751506z"/>
    <ellipse cx="721.156" cy="188.045" fill="rgb(249,199,61)" rx="16.027" ry="16.045"/>
    <g>
      <path fill="rgb(19,28,43)" fill-rule="evenodd" d="M576.18005371 344.41314697c2.20056152.92321778 4.61218262 1.38485718 7.23382568 1.38485718 2.62164307 0 5.03216553-.4616394 7.23327637-1.38485718 2.20056153-.9232788 4.08569336-2.19458008 5.65582276-3.81506347 1.56958007-1.61993409 2.79882812-3.5314331 3.68945312-5.73501587.89001465-2.20303345 1.33532715-4.58462525 1.33532715-7.14474488 0-2.559021-.4453125-4.94058227-1.33532715-7.14419555-.890625-2.20303345-2.11987305-4.11450196-3.68945312-5.73501587-1.5701294-1.61993408-3.45526123-2.89181519-5.65582276-3.81506348-2.20111084-.92321777-4.6116333-1.38543701-7.23327637-1.38543701-2.62164306 0-5.03326416.46221924-7.23382568 1.38543701-2.20117187.9232483-4.08624267 2.1951294-5.65582275 3.81506348-1.5701294 1.62051391-2.79937744 3.53198242-3.68945313 5.73501587-.890625 2.20361328-1.33477783 4.58517456-1.33477783 7.14419555 0 2.56011963.44415283 4.94171143 1.33477783 7.14474488.89007569 2.20358276 2.11932373 4.11508178 3.68945313 5.73501587 1.56958008 1.6204834 3.45465088 2.89178466 5.65582275 3.81506347zm12.57354736-4.08288574c-1.5859375.72946167-3.36602783 1.09387207-5.33972168 1.09387207-1.97479248 0-3.7548828-.36444092-5.340271-1.09387207-1.58599853-.72888184-2.94561767-1.70864868-4.07775878-2.93981934-1.13336182-1.23120117-2.00756836-2.68106079-2.62164307-4.35015869-.61517334-1.66848755-.92279052-3.44213867-.92279052-5.32196045 0-1.87869262.30761718-3.65231323.92279052-5.32141113.61407471-1.66851807 1.48828125-3.11837768 2.62164307-4.35012817 1.13214111-1.23062134 2.49176025-2.21151734 4.07775879-2.94036866 1.58532715-.72891235 3.36547851-1.09335327 5.340271-1.09335327 1.97369384 0 3.75378417.36444092 5.33972167 1.09335327 1.58538819.72885132 2.94506836 1.70974732 4.07836914 2.94036866 1.13214112 1.23175049 2.0064087 2.6816101 2.62158204 4.35012817.6140747 1.6690979.9222412 3.4427185.9222412 5.32141113 0 1.87982178-.3081665 3.6534729-.9222412 5.32196045-.61517334 1.6690979-1.48944092 3.11895752-2.62158204 4.3501587-1.13330078 1.23117065-2.49298095 2.2109375-4.07836914 2.93981933z"/>
      <path fill="rgb(19,28,43)" fill-rule="evenodd" d="M633.31940827 337.73056849c.84093358 1.2633946 1.9172449 2.19512685 3.228328 2.7946049 1.31052147.59950023 2.66168034.89895072 4.05347663.89895072.77661133 0 1.56959882-.12146403 2.3789403-.36442169.80877246-.24295766 1.54530802-.60740154 2.20903026-1.0939087.66261374-.48591532 1.20499277-1.0848311 1.62605076-1.79790145.42046679-.7125007.63096992-1.53857153.63096992-2.47876735 0-1.3283732-.4204668-2.34032439-1.26198418-3.03758474-.84208641-.69609144-1.88565281-1.27976688-3.13126083-1.74987219-1.24617704-.46895858-2.6058122-.92323909-4.07773787-1.36057027-1.4730785-.43733117-2.83271367-1.04473271-4.07832908-1.82278167-1.24617704-.7774793-2.28974344-1.822212-3.13126082-3.13476041-.84208642-1.31198614-1.26198418-3.08617628-1.26198418-5.3214237 0-1.00404989.21841778-2.07364063.65526073-3.20820997.43684295-1.13343742 1.12427958-2.17026883 2.06343318-3.11047205.93802293-.93907129 2.14358473-1.72502155 3.61663367-2.35671885 1.47250948-.63225957 3.24415731-.94812672 5.3160446-.94812672 1.8766075 0 3.6725166.25991439 5.38825935.77804896 1.7151959.51869684 3.22043552 1.57189312 4.51516463 3.15905618l-3.78649939 3.45062016c-.58248436-.90687422-1.40817245-1.63574719-2.47602227-2.18722556-1.06783503-.55033164-2.28185095-.82607082-3.64090231-.82607082-1.29529814 0-2.3715873.17007776-3.22835018.51023327-.85787138.34013332-1.54587704.7774571-2.063411 1.31198614-.51811778.5350913-.8821622 1.11027357-1.09211847 1.72558381-.21106476.6158947-.3160466 1.18317567-.3160466 1.70128805 0 1.45776813.4204668 2.57540294 1.26255321 3.3534297.84095575.7774793 1.88508378 1.4091766 3.13126083 1.8951141 1.2456154.48591531 2.60468893.92380876 4.07773787 1.3125484 1.47250948.38873965 2.8315904.93173226 4.07832908 1.62784589 1.24506855.69723816 2.28920397 1.63687172 3.13126082 2.81890066.84093358 1.18315348 1.26198418 2.81156163 1.26198418 4.88464 0 1.65213425-.31550713 3.14325357-.94647705 4.4710645-.63101425 1.32894287-1.48097098 2.44711775-2.54882819 3.3534297-1.06781287.90743649-2.33038085 1.60411239-3.78652156 2.0900277-1.45670234.48591531-3.00991023.72887297-4.6607617.72887297-2.20113778 0-4.2888322-.38871746-6.26252905-1.16619675-1.97425848-.7774793-3.54383514-1.9759027-4.70875953-3.59638736l3.83506624-3.30484556z"/>
      <path fill="rgb(19,28,43)" fill-rule="evenodd" d="M707.49894462 317.94958354c-.9707457-1.2633946-2.20115994-2.2358097-3.68943221-2.91609852-1.4889078-.68028884-3.02630117-1.02043695-4.61169235-1.02043695-1.94207518 0-3.69791588.36444388-5.2675147 1.09333904-1.5701383.72887297-2.91282089 1.72558381-4.029208 2.98897842-1.11692656 1.26396427-1.98325945 2.74602076-2.59731374 4.44730881-.6152293 1.70072579-.9227996 3.52350006-.9227996 5.4671835 0 1.81544264.29123848 3.53199322.87421798 5.1519082.58248436 1.62048466 1.42341794 3.04605572 2.52455955 4.27723106 1.09942713 1.2317672 2.44327733 2.20362002 4.02920798 2.91553626 1.58538379.71363263 3.3812781 1.06959075 5.38884314 1.06959075 1.97369685 0 3.7052689-.40511192 5.19413237-1.21535055 1.488324-.80913629 2.75084765-1.94370563 3.7870832-3.40203602l3.9321408 2.96470485c-.25962422.35709004-.71225213.86729372-1.35963516 1.53121029-.64734608.66445663-1.50464843 1.32894286-2.57250564 1.99226757-1.06839668.66447883-2.3546495 1.24815427-3.85988173 1.74990177-1.50469277.50174012-3.24470417.75316874-5.21839362.75316874-2.71868652 0-5.17044754-.51867465-7.35518698-1.5549438-2.18478378-1.0368314-4.04616795-2.39740168-5.58302184-4.08288712-1.53739336-1.68433132-2.7107497-3.5878942-3.5195665-5.71014116-.80931192-2.12222476-1.21340994-4.26876748-1.21340994-6.44016824 0-2.65618414.43684295-5.11064092 1.31052146-7.36284507.87367851-2.25161969 2.09502528-4.19588759 3.66517096-5.83219704 1.56959882-1.63574719 3.45466044-2.90761276 5.65577604-3.81504925 2.20061308-.90687422 4.62806112-1.36115473 7.28238844-1.36115473 2.26493533 0 4.49035652.43789345 6.67509596 1.3125706 2.18478378.87465496 3.97223875 2.21942262 5.3645819 4.03371114l-3.88415777 2.96469745z"/>
      <path fill="rgb(19,28,43)" fill-rule="evenodd" d="M757.01672363 310.51385498h-4.22338867l-15.14666748 34.40948486h5.43737793l3.3982544-8.50531005h16.36010742l3.4467163 8.50531005h5.43737793l-14.70977783-34.40948486zm-2.28131103 6.0265503l6.40814209 15.79528808h-13.01098633l6.50579834-15.79528809h.0970459z"/>
      <path fill="rgb(19,28,43)" fill-rule="evenodd" d="M812.55426025 310.51385498h-12.0881958v34.40948486h4.6607666v-15.16357421h5.19470215l8.73907471 15.16357421h5.8256836l-9.75836182-15.6980896c1.2935791-.12939453 2.4675293-.47802734 3.51953125-1.0453186 1.05090332-.5661316 1.94152832-1.2633667 2.66955566-2.08944702.72924805-.82608032 1.28686524-1.74987793 1.6751709-2.7703247.38830566-1.02044679.5824585-2.0815735.5824585-3.18334962 0-1.0696106-.16259766-2.17874145-.4854126-3.32913208-.32397461-1.1498413-.8973999-2.18722534-1.72363281-3.11047363-.82519532-.92382813-1.9494629-1.68435669-3.3739624-2.28439331-1.42456055-.59893799-3.2362671-.8989563-5.43737794-.8989563zm-1.31054687 15.16357422h-6.11688233v-11.08126831h6.11688233c.9064331 0 1.803833.07287598 2.69439697.21865845.88952637.14578247 1.68304444.4130249 2.3795166.80178833.69537354.3887329 1.25299073.94812011 1.67401123 1.67697143.42102051.72888184.63098145 1.67645264.63098145 2.8432312 0 1.16619873-.20996094 2.11431885-.63098145 2.84320069-.4210205.72888183-.9786377 1.2876892-1.67401123 1.67642212-.69647216.3887329-1.48999023.65655517-2.3795166.80233764-.89056396.14578247-1.78796387.21865845-2.69439697.21865845z"/>
      <path fill="rgb(19,28,43)" fill-rule="evenodd" d="M855.42118176 337.73056849c.84097792 1.2633946 1.91780655 2.19512685 3.22837235 2.7946049 1.31052146.59950023 2.66168034.89895072 4.05347663.89895072.77661133 0 1.57013829-.12146403 2.3794576-.36442169.80823299-.24295766 1.54533757-.60740154 2.20905242-1.0939087.66259158-.48591532 1.20443114-1.0848311 1.62548174-1.79790145.42100625-.7125007.63096992-1.53857153.63096992-2.47876735 0-1.3283732-.41992733-2.34032439-1.26198418-3.03758474-.84206425-.69609144-1.88506162-1.27976688-3.13126083-1.74987219-1.24619921-.46895858-2.60525057-.92323909-4.0771984-1.36057027-1.47303417-.43733117-2.83325314-1.04473271-4.07828474-1.82278167-1.24619922-.7774793-2.29032725-1.822212-3.13126083-3.13476041-.84210858-1.31198614-1.26198418-3.08617628-1.26198418-5.3214237 0-1.00404989.21785615-2.07364063.6546991-3.20820997.43684295-1.13343742 1.12423524-2.17026883 2.063411-3.11047205.9380451-.93907129 2.14355518-1.72502155 3.61663368-2.35671885 1.4730785-.63225957 3.2441573-.94812672 5.31659146-.94812672 1.8760902 0 3.67197712.25991439 5.38771987.77804896 1.7157871.51869684 3.22043553 1.57189312 4.51516464 3.15905618l-3.78595992 3.45062016c-.58244003-.90687422-1.40871192-1.63574719-2.47656913-2.18722556-1.06781287-.55033164-2.28126715-.82607082-3.64036285-.82607082-1.29581543 0-2.37156512.17007776-3.228328.51023327-.85784921.34013332-1.54641651.7774571-2.06341101 1.31198614-.51811778.5350913-.88270166 1.11027357-1.09266532 1.72558381-.21108694.6158947-.31609094 1.18317567-.31609094 1.70128805 0 1.45776813.4210506 2.57540294 1.26311484 3.3534297.84097792.7774793 1.88510596 1.4091766 3.13126083 1.8951141 1.24506855.48591531 2.6041199.92380876 4.07719841 1.3125484 1.4730785.38873965 2.83212986.93173226 4.07832907 1.62784589 1.24506855.69723816 2.28920398 1.63687172 3.13126083 2.81890066.84093358 1.18315348 1.26198418 2.81156163 1.26198418 4.88464 0 1.65213425-.31492332 3.14325357-.94593758 4.4710645-.63096992 1.32894287-1.48097099 2.44711775-2.54877646 3.3534297-1.06785721.90743649-2.33097206 1.60411239-3.7870832 2.0900277-1.45616288.48591531-3.00939293.72887297-4.66081344.72887297-2.2011156 0-4.2882484-.38871746-6.26252904-1.16619675-1.97423632-.7774793-3.54325133-1.9759027-4.70816833-3.59638736l3.83448981-3.30484556z"/>
    </g>
    <g>
      <path fill="rgb(19,28,43)" fill-rule="evenodd" d="M566.26306152 363.04934692c-.20770263.52435303-.31213379 1.09896851-.31213379 1.72390747 0 .62490845.10443116 1.20178223.3121338 1.73010254.20825195.5282898.49725341.98370362.86688232 1.3650818.37023926.38198852.81500244.6791992 1.33538818.89105224.5197754.21246338 1.09210205.31866455 1.7163086.31866455.62420654 0 1.1965332-.10620117 1.71630859-.31866455.52038574-.21185303.96569824-.50906372 1.33538818-.89105225.36968994-.38137817.65863037-.836792.86688233-1.36508179.20831298-.5283203.31213379-1.10519409.31213379-1.73010254 0-.62493896-.1038208-1.19955444-.3121338-1.72390747-.20825195-.52490234-.49719238-.97805786-.86688232-1.36001587-.36968994-.381958-.81500244-.68084716-1.33538818-.896698-.5197754-.21585082-1.09210205-.32376098-1.7163086-.32376098-.62420654 0-1.1965332.10791016-1.71630859.32376099-.52038574.21585083-.96514892.51473999-1.33538818.896698-.36968994.381958-.65863037.83511352-.86688233 1.36001586zm.69366455 3.1472168c-.16143798-.43960571-.24267578-.91421509-.24267578-1.42330933 0-.50906372.0812378-.9837036.24267578-1.4232788.1619873-.43960572.39337159-.82156372.69366456-1.14532471.30078125-.3243103.66485595-.57858276 1.09210205-.76391602.4277954-.18533325.90753173-.27798462 1.43920898-.27798462.53161621 0 1.01141357.09265137 1.43920898.27798462.42779541.18533326.79180909.43960572 1.09204102.76391602.30084229.32376099.53167725.705719.69366455 1.1453247.1619873.4395752.24267578.9142151.24267578 1.42327881 0 .50909424-.08068847.98370362-.24267578 1.42330933-.1619873.4395752-.39282226.8215332-.69366455 1.14590454-.30023193.32369995-.6642456.57855225-1.09204102.76333618-.4277954.18533326-.90759277.27798462-1.43920898.27798462-.53167725 0-1.01141357-.09265136-1.43920898-.27798462-.4272461-.18478393-.7913208-.43963623-1.09210206-.76333618-.30029296-.32437134-.53167724-.70632934-.69366455-1.14590454z"/>
      <path fill="rgb(19,28,43)" fill-rule="evenodd" d="M584.67703108 360.67682412h.98204494l4.98191477 7.17470825h.02313798v-7.17470825h.76305814v8.19286655h-.98260659l-4.98191477-7.17468606h-.02313797v7.17468606h-.7624965v-8.19286655z"/>
      <path fill="rgb(19,28,43)" fill-rule="evenodd" d="M602.22294166 360.67682412h5.00448372v.69441944h-4.24198722v2.91609852h3.97614065v.69439725h-3.97614065v3.1935541h4.42709843v.69439724h-5.18959493v-8.19286655z"/>
      <path fill="rgb(19,28,43)" fill-rule="evenodd" d="M629.40927478 367.35374291c.2003567.34747236.45998093.60571474.77999593.77522284.3194312.17005556.68403725.2548096 1.0920963.2548096.25454731 0 .4932875-.03842637.71678218-.11582658.22349468-.07685274.41821285-.1853181.58358547-.32376105.16591947-.13899042.29685486-.30682652.39338257-.5034343.09593651-.19665218.1444738-.41868026.1444738-.66558857 0-.28537907-.05980698-.52041323-.17947267-.70573132-.11964352-.1853181-.2793776-.3373072-.4797343-.45710663-.20035671-.11979943-.4255437-.22148801-.67614477-.30682652-.25060108-.08475405-.50851083-.1695155-.7743574-.25426954-.2658244-.08475405-.52375632-.18134525-.77433522-.28926314-.25060108-.10791788-.47578806-.24916476-.67614477-.4226531-.20037888-.17344395-.36009078-.39156577-.4797343-.6537366-.1196657-.26217085-.1789332-.5859319-.1789332-.97185283 0-.36273489.0711284-.68480175.21334826-.96618577.14280367-.2819463.3352605-.51700265.57794693-.7062714.24324806-.18872868.52206401-.33168455.83811061-.42773568.31606877-.096606.64736825-.14465746.99446747-.14465746.4464499 0 .86070913.0791092 1.2422308.23675054.38154386.15820361.71114365.4226531.9882673.79274183l-.6586675.47460343c-.19302586-.27007214-.41821285-.47234697-.67614477-.60737934-.25849356-.13506197-.56496276-.20285929-.9188312-.20285929-.2471943 0-.48198823.0333438-.70548292.0983224-.22351686.06611052-.41823502.16215425-.58358547.28928532-.16594164.12770074-.29856933.28759114-.39904328.48027047-.09988276.1932416-.15013451.42093671-.15013451.68310756 0 .4085225.10442019.72325031.31212252.94304413.2082492.21979382.46843505.39325996.78055757.52039103.31210036.12770074.65074547.23954708 1.01702165.3356352.36572933.09658381.70494346.22600093 1.01704382.38756333.31212252.16219865.57230838.38761512.77999593.67692265.20827136.28930752.31210036.6887524.31210036 1.19787593 0 .37008873-.0688523.6983701-.20768756.98370478-.13883525.28533467-.32565355.52659814-.56044749.72320592-.23535557.19665218-.50681852.3452529-.81497263.44523248-.30874531.10060844-.62817651.15086458-.9594686.15086458-.53956346 0-1.0367972-.09491921-1.49113958-.2836183-.45490403-.18929094-.84377133-.50740715-1.16773997-.95489609l.72867264-.48590051z"/>
      <path fill="rgb(19,28,43)" fill-rule="evenodd" d="M645.9844175 361.37124356h-2.79714577v-.69441944h6.3573349v.69441944h-2.7971236v7.4984471h-.76305814l-.00000739-7.4984471z"/>
      <path fill="rgb(19,28,43)" fill-rule="evenodd" d="M659.13763428 363.04934692c-.2076416.52435303-.31207276 1.09896851-.31207276 1.72390747 0 .62490845.10443116 1.20178223.31207276 1.73010254.20831299.5282898.49725342.98370362.86694336 1.3650818.37023925.38198852.81500244.6791992 1.33532715.89105224.51983642.21246338 1.09216308.31866455 1.71636962.31866455.62420655 0 1.1965332-.10620117 1.7163086-.31866455.52038574-.21185303.96569824-.50906372 1.33538818-.89105225.36968994-.38137817.65863037-.836792.86688233-1.36508179.20825195-.5283203.31207275-1.10519409.31207275-1.73010254 0-.62493896-.1038208-1.19955444-.31207275-1.72390747-.20825196-.52490234-.49719239-.97805786-.86688233-1.36001587-.36968994-.381958-.81500244-.68084716-1.33538818-.896698-.5197754-.21585082-1.09210205-.32376098-1.7163086-.32376098-.62420654 0-1.1965332.10791016-1.71636962.32376099-.52032471.21585083-.9650879.51473999-1.33532715.896698-.36968994.381958-.65863037.83511352-.86694336 1.36001586zm.69366455 3.1472168c-.16143799-.43960571-.24273682-.91421509-.24273682-1.42330933 0-.50906372.08129883-.9837036.24273682-1.4232788.16192627-.43960572.39331054-.82156372.69360351-1.14532471.30084229-.3243103.66485596-.57858276 1.09210205-.76391602.42785645-.18533325.90753174-.27798462 1.43920899-.27798462.53167724 0 1.01141357.09265137 1.43920898.27798462.42779541.18533326.79187012.43960572 1.09210205.76391602.30084229.32376099.53167725.705719.69360352 1.1453247.1619873.4395752.24273682.9142151.24273682 1.42327881 0 .50909424-.08074952.98370362-.24273682 1.42330933-.16192627.4395752-.39276123.8215332-.69360352 1.14590454-.30023193.32369995-.66430664.57855225-1.09210205.76333618-.4277954.18533326-.90753174.27798462-1.43920898.27798462-.53167725 0-1.01135254-.09265136-1.43920899-.27798462-.42724609-.18478393-.79125976-.43963623-1.09210205-.76333618-.30029297-.32437134-.53167724-.70632934-.69360351-1.14590454z"/>
      <path fill="rgb(19,28,43)" fill-rule="evenodd" d="M679.90905762 360.67681885h-2.35748291v8.1928711h.7625122v-3.88796998h1.76879883c.3234253 0 .6338501-.04232788.93011475-.12768555.296875-.08474731.55877685-.21359253.78619385-.38760376.22741699-.17346191.40802002-.3949585.54351806-.66503906.13433838-.27008056.20202637-.5904541.20202637-.96054077 0-.4243164-.08294678-.77688599-.24835205-1.0588379-.16589356-.28137206-.3781128-.50344848-.63604736-.66561889-.25793457-.16159057-.54290772-.27572632-.8550415-.34127807-.31207276-.06555176-.61120606-.09829712-.89624024-.09829712zm.13885498 3.61053467h-1.73382569v-2.91610718h1.68756104c.21557617 0 .4317627.0270996.64733887.08078003.21557617.05426025.40631103.14126587.57226562.26046753.16540527.119812.30029297.27178955.40472412.4571228.1038208.18533325.15576172.40908813.15576172.67126465 0 .27008056-.05023193.49777221-.15014648.68255615-.10046387.18530273-.23138428.33392334-.39282227.44580078-.1619873.11184693-.34710693.19265747-.55480957.24298096-.20825195.05023193-.42047119.07513428-.63604736.07513428z"/>
      <path fill="rgb(19,28,43)" fill-rule="evenodd" d="M711.0365574 367.58538868c-.39282093.53224299-.8476954.91421326-1.36355923 1.14531896-.5164033.23164577-1.07516588.34747236-1.67627296.34747236-.6242081 0-1.19649431-.1062015-1.71632656-.31866368-.52037171-.21187032-.96510715-.50907914-1.33532957-.89104942-.36967557-.38137841-.6586675-.83681304-.8669167-1.36508318-.20770972-.52831453-.31212252-1.1052206-.31212252-1.73011893 0-.62492793.1044202-1.19954794.31212253-1.72388962.20824919-.52490395.49723373-.97805993.86691669-1.3600302.37022242-.38194808.81495047-.6808511 1.33532957-.89669426.51983225-.21584317 1.09211846-.32376106 1.71632656-.32376106.55483112 0 1.0729489.0983224 1.55494453.29495237.48140443.19662998.9029945.52659815 1.26536878.98934962l-.62425244.52039103c-.25394134-.38532906-.57959489-.6667131-.97638423-.84471435-.39732882-.1774168-.80372511-.26612149-1.21967664-.26612149-.5316488 0-1.0113831.09265535-1.4392029.27799564-.42722861.1853181-.79127302.43958764-1.09207412.76391095-.30026164.32376106-.53169314.70570913-.69366638 1.14531896-.16138204.43958764-.24266425.91421326-.24266425 1.42329241 0 .50907915.08128221.98370477.24266425 1.4232924.16197324.43958765.39340474.82155052.69366638 1.14590343.3008011.32371666.66484551.57857066 1.09207412.76334869.4278198.1853181.9075541.27797344 1.4392029.27797344.20829353 0 .42389574-.02488022.64739042-.07513635.22349469-.05030052.44076703-.12770074.65298463-.23169016.2122176-.10394504.41428878-.23503416.60674561-.39325997.19246423-.1581814.36232994-.34918134.50851082-.57292581l.62420072.47461822z"/>
      <path fill="rgb(19,28,43)" fill-rule="evenodd" d="M724.28295898 360.67681885h-.78564453l-3.57208252 8.1928711h.7980957l.92443848-2.17535401h4.3345337l.89007568 2.175354h.85510254l-3.44451905-8.1928711zm-2.3348999 5.32312011l1.90765381-4.48971557 1.84893799 4.48971557h-3.7565918z"/>
      <path fill="rgb(19,28,43)" fill-rule="evenodd" d="M739.61016846 360.67681885h-2.14978028v8.1928711h.76251221v-3.88796998h1.4216919l2.30047607 3.88796997h.86694336l-2.38122559-3.93429565c.22351074-.0310669.458313-.08474732.70495606-.1621399.24664306-.07687377.47180176-.19494628.67614746-.35314941.2043457-.1576538.37365722-.36444092.50848389-.61871338.13494873-.25479126.20263671-.57855224.20263671-.97238159 0-.35430908-.0581665-.65542603-.1732788-.90237427-.11566163-.2468872-.26245118-.45141601-.43963624-.6130371-.17724609-.1621399-.37756347-.28533936-.60107421-.37066651-.22351075-.08474732-.4430542-.14633179-.65869141-.18475342-.21557617-.03897095-.41595459-.06213379-.60107422-.06951904-.18511963-.00790405-.33129883-.01184082-.43908691-.01184082zm.230896 3.61050415h-1.61816407v-2.91610718h1.61816406c.4006958 0 .72631836.05029297.97692871.15029907.25054932.10055542.44476319.22375489.58355713.3706665.13885498.1463318.23309326.30453492.28338623.47402955.0501709.17007446.07501221.32434082.07501221.46276855 0 .13900757-.0248413.29324341-.0750122.46331787-.05029298.16952515-.14453126.32772827-.28338624.47406006-.13879394.14691162-.33300781.27008057-.58355713.3706665-.25061035.1000061-.5762329.15029908-.9769287.15029908z"/>
      <path fill="rgb(19,28,43)" fill-rule="evenodd" d="M764.64677149 367.35374291c.2003567.34747236.45998092.60571474.7799516.77522284.31947553.17005556.68405941.2548096 1.09211845.2548096.25452515 0 .49326533-.03842637.71680435-.11582658.2234947-.07685274.41821286-.1853181.5835633-.32376105.16594165-.13899042.29687703-.30682652.39340474-.5034343.09593652-.19665218.1444738-.41868026.1444738-.66558857 0-.28537907-.05985132-.52041323-.17947267-.70573132-.11966568-.1853181-.27937759-.3373072-.4797343-.45710663-.2003567-.11979943-.42556586-.22148801-.67616694-.30682652-.25060107-.08475405-.50851082-.1695155-.77435739-.25426954-.26580223-.08475405-.52375632-.18134525-.77431305-.28926314-.25060108-.10791788-.47581024-.24916476-.67616694-.4226531-.20035671-.17344395-.36006862-.39156577-.4797343-.6537366-.1196657-.26217085-.1789332-.5859319-.1789332-.97185283 0-.36273489.0711284-.68480175.21334826-.96618577.14280366-.2819463.3352605-.51700265.5779691-.7062714.24324805-.18872868.52204184-.33168455.83808844-.42773568.31609093-.096606.64739042-.14465746.99446747-.14465746.4464499 0 .86068696.0791092 1.2422308.23675054.38154385.15820361.71116582.4226531.98824513.79274183l-.65862316.47460343c-.19304804-.27007214-.41821285-.47234697-.67616694-.60737934-.25849356-.13506197-.5649406-.20285929-.9188312-.20285929-.24721647 0-.48198824.0333438-.70548292.0983224-.22349469.06611052-.41821285.16215425-.5835633.28928532-.16594165.12770074-.2985915.28759114-.39904329.48027047-.09990492.1932416-.15015668.42093671-.15015668.68310756 0 .4085225.1044202.72325031.31212253.94304413.20824919.21979382.46845722.39325996.78057974.52039103.31207819.12770074.6507233.23954708 1.01702165.3356352.36570715.09658381.70494346.22600093 1.01702164.38756333.31212253.16219865.57228622.38761512.77999594.67692265.20824919.28930752.31212252.6887524.31212252 1.19787593 0 .37008873-.06887446.6983701-.20770972.98370478-.13883525.28533467-.32565355.52659814-.56042532.72320592-.23535558.19665218-.50684069.3452529-.8149948.44523248-.30874532.10060844-.62817652.15086458-.9594686.15086458-.5395413 0-1.03677503-.09491921-1.49111741-.2836183-.4549262-.18929094-.84377133-.50740715-1.16776214-.95489609l.7286948-.48590051z"/>
      <path fill="rgb(19,28,43)" fill-rule="evenodd" d="M779.406806 360.67682412h5.00505274v.69441944h-4.24200939v2.91609852h3.97562335v.69439725h-3.97562335v3.1935541h4.4271206v.69439724h-5.19015657l-.00000739-8.19286655z"/>
      <path fill="rgb(19,28,43)" fill-rule="evenodd" d="M796.96398926 360.67681885h-2.14923096v8.1928711h.7619629v-3.88796998h1.4222412l2.30047608 3.88796997h.86694336l-2.38171387-3.93429565c.2234497-.0310669.45825195-.08474732.70544433-.1621399.24609375-.07687377.4718628-.19494628.67614747-.35314941.2043457-.1576538.37365722-.36444092.50793457-.61871338.13549804-.25479126.20324707-.57855224.20324707-.97238159 0-.35430908-.05877686-.65542603-.17388916-.90237427-.1151123-.2468872-.26184082-.45141601-.43908692-.6130371-.1772461-.1621399-.3781128-.28533936-.60162353-.37066651-.22351075-.08474732-.44250489-.14633179-.65808106-.18475342-.2156372-.03897095-.41656494-.06213379-.60168457-.06951904-.18511963-.00790405-.33074951-.01184082-.43908691-.01184082zm.23138428 3.61050415h-1.61865235v-2.91610718h1.61865235c.40075683 0 .72583007.05029297.97637939.15029907.25061035.10055542.44482422.22375489.58361816.3706665.13885498.1463318.23364258.30453492.2833252.47402955.05084228.17007446.07562256.32434082.07562256.46276855 0 .13900757-.02478028.29324341-.07562256.46331787-.04968262.16952515-.14447022.32772827-.2833252.47406006-.13879394.14691162-.3330078.27008057-.58361816.3706665-.25054932.1000061-.57562256.15029908-.9763794.15029908z"/>
      <path fill="rgb(19,28,43)" fill-rule="evenodd" d="M809.13575974 360.67682412h.820589l2.63574157 7.18599054 2.65829573-7.18599054h.80935626l-3.10983732 8.19286655h-.76303597l-3.05110927-8.19286655z"/>
      <path fill="rgb(19,28,43)" fill-rule="evenodd" d="M825.69958104 360.67682412h.76195703v8.19286655h-.76195703v-8.19286655z"/>
      <path fill="rgb(19,28,43)" fill-rule="evenodd" d="M843.9961494 367.58538868c-.39282094.53224299-.8476954.91421326-1.36355924 1.14531896-.51586384.23164577-1.07461903.34747236-1.67627296.34747236-.6242081 0-1.19649431-.1062015-1.71574275-.31866368-.52037172-.21187032-.96510715-.50907914-1.33537391-.89104942-.37022243-.38137841-.65920697-.83681304-.8669167-1.36508318-.20770972-.52831453-.31266938-1.1052206-.31266938-1.73011893 0-.62492793.10495966-1.19954794.31266938-1.72388962.20770973-.52490395.49669427-.97805993.8669167-1.3600302.37026676-.38194808.8149948-.6808511 1.3353739-.89669426.51924845-.21584317 1.09153466-.32376106 1.71574276-.32376106.55537798 0 1.07349576.0983224 1.555484.29495237.48086496.19662998.90303884.52659815 1.26536878.98934962l-.6242081.52039103c-.25398568-.38532906-.58023043-.6667131-.97642858-.84471435-.3973288-.1774168-.80367338-.26612149-1.2202161-.26612149-.5316488 0-1.0113831.09265535-1.4392029.27799564-.42668914.1853181-.79127302.43958764-1.09153466.76391095-.30026163.32376106-.5316488.70570913-.69420584 1.14531896-.16142638.43958764-.2427086.91421326-.2427086 1.42329241 0 .50907915.08128222.98370477.2427086 1.4232924.16255704.43958765.3939442.82155052.69420584 1.14590343.30026164.32371666.66484552.57857066 1.09153466.76334869.4278198.1853181.9075541.27797344 1.4392029.27797344.208833 0 .4244352-.02488022.64792989-.07513635.22349469-.05030052.44022016-.12770074.65243777-.23169016.2122176-.10394504.41428878-.23503416.60729247-.39325997.19187303-.1581814.36232994-.34918134.50797135-.57292581l.62420072.47461822z"/>
      <path fill="rgb(19,28,43)" fill-rule="evenodd" d="M853.94869446 360.67682412h5.00505275v.69441944h-4.2420094v2.91609852h3.97562336v.69439725h-3.97562335v3.1935541h4.4271206v.69439724h-5.19015657l-.0000074-8.19286655z"/>
      <path fill="rgb(19,28,43)" fill-rule="evenodd" d="M869.57676894 367.35374291c.19981724.34747236.45943407.60571474.77999593.77522284.31947554.17005556.68405942.2548096 1.09153466.2548096.25510895 0 .49330966-.03842637.71680435-.11582658.22349468-.07685274.41875232-.1853181.5835633-.32376105.16594164-.13899042.29687703-.30682652.3939442-.5034343.09598086-.19665218.14451814-.41868026.14451814-.66558857 0-.28537907-.05985132-.52041323-.179517-.70573132-.11962135-.1853181-.27991707-.3373072-.4797343-.45710663-.20089618-.11979943-.42552153-.22148801-.6761226-.30682652-.25060108-.08475405-.50909464-.1695155-.7743574-.25426954-.26638604-.08475405-.52375632-.18134525-.7743574-.28926314-.25055673-.10791788-.4763497-.24916476-.6761226-.4226531-.2009405-.17344395-.36011295-.39156577-.4797343-.6537366-.11966568-.26217085-.17947266-.5859319-.17947266-.97185283 0-.36273489.07108406-.68480175.21334826-.96618577.14334314-.2819463.33521616-.51700265.57792476-.7062714.24379491-.18872868.52262565-.33168455.83867964-.42773568.3160466-.096606.64679922-.14465746.99446747-.14465746.44585871 0 .86014749.0791092 1.241647.23675054.38154385.15820361.7111658.4226531.98882893.79274183l-.65920697.47460343c-.1930037-.27007214-.41767338-.47234697-.6761226-.60737934-.25849356-.13506197-.56439373-.20285929-.91887553-.20285929-.24717213 0-.48198824.0333438-.70548293.0983224-.22349468.06611052-.41762165.16215425-.5835633.28928532-.16594164.12770074-.2980077.28759114-.39845208.48027047-.10049613.1932416-.15015669.42093671-.15015669.68310756 0 .4085225.10387334.72325031.31153872.94304413.208833.21979382.46845722.39325996.7811266.52039103.31153872.12770074.65018383.23954708 1.01706599.3356352.36570715.09658381.70435226.22600093 1.01702164.38756333.31153872.16219865.57228622.38761512.77999594.67692265.20770972.28930752.31153872.6887524.31153872 1.19787593 0 .37008873-.06883013.6983701-.20770972.98370478-.13883526.28533467-.32506975.52659814-.55988586.72320592-.23589504.19665218-.50679635.3452529-.81495046.44523248-.30928478.10060844-.62876032.15086458-.9594686.15086458-.53958563 0-1.03736623-.09491921-1.49116175-.2836183-.45488186-.18929094-.84431819-.50740715-1.16825727-.95489609l.72916777-.48590051z"/>
    </g>
  </g>
</svg>
