<svg width="2878" height="1799" viewBox="0 0 2878 1799" fill="none" xmlns="http://www.w3.org/2000/svg">
<path d="M2878 0H0V1799H2878V0Z" fill="white"/>
<path fill-rule="evenodd" clip-rule="evenodd" d="M1083.25 917.646H1794.75C1819.02 917.646 1838.72 937.351 1838.72 961.622C1838.72 985.893 1819.02 1005.6 1794.75 1005.6H1083.25C1058.98 1005.6 1039.28 985.893 1039.28 961.622C1039.28 937.351 1058.98 917.646 1083.25 917.646Z" fill="#F7F7F9"/>
<path fill-rule="evenodd" clip-rule="evenodd" d="M1782.76 945.474C1788.28 945.474 1792.75 949.952 1792.75 955.469C1792.75 958.507 1791.4 961.226 1789.26 963.065C1793.71 965.403 1796.75 970.075 1796.75 975.458C1796.75 976.561 1795.86 977.457 1794.75 977.457C1793.65 977.457 1792.75 976.561 1792.75 975.458C1792.75 969.941 1788.28 965.463 1782.76 965.463C1777.25 965.463 1772.77 969.941 1772.77 975.458C1772.77 976.561 1771.87 977.457 1770.77 977.457C1769.67 977.457 1768.77 976.561 1768.77 975.458C1768.77 970.073 1771.81 965.403 1776.27 963.065C1774.12 961.23 1772.77 958.507 1772.77 955.469C1772.77 949.952 1777.25 945.474 1782.76 945.474ZM1776.77 955.469C1776.77 958.781 1779.45 961.465 1782.76 961.465C1786.07 961.465 1788.76 958.781 1788.76 955.469C1788.76 952.157 1786.07 949.472 1782.76 949.472C1779.45 949.472 1776.77 952.157 1776.77 955.469Z" fill="#131C2B" fill-opacity="0.4"/>
<path d="M1083.94 958.622C1081.64 958.622 1080.5 957.667 1080.5 955.758V948.654H1081.51V955.534C1081.51 956.344 1081.7 956.904 1082.1 957.214C1082.49 957.523 1083.14 957.678 1084.05 957.678C1085.11 957.678 1085.94 957.544 1086.55 957.278V948.654H1087.55V956.814C1087.55 957.432 1087.23 957.891 1086.58 958.19C1085.94 958.478 1085.06 958.622 1083.94 958.622ZM1092.08 958.622C1091.15 958.622 1090.33 958.44 1089.61 958.078L1089.92 957.294C1090.62 957.635 1091.38 957.806 1092.19 957.806C1092.74 957.806 1093.22 957.742 1093.61 957.614C1093.74 957.304 1093.8 956.963 1093.8 956.59C1093.8 956.28 1093.76 956.046 1093.68 955.886C1093.59 955.715 1093.44 955.576 1093.21 955.47C1093 955.363 1092.67 955.262 1092.22 955.166C1091.37 954.974 1090.73 954.723 1090.3 954.414C1089.88 954.104 1089.68 953.64 1089.68 953.022C1089.68 952.414 1089.89 951.902 1090.33 951.486C1090.78 951.07 1091.45 950.862 1092.35 950.862C1093.15 950.862 1093.83 951.016 1094.4 951.326V951.726C1094.4 952.056 1094.33 952.398 1094.2 952.75H1093.56L1093.45 951.726C1093.1 951.672 1092.71 951.646 1092.28 951.646C1091.68 951.646 1091.24 951.742 1090.99 951.934C1090.73 952.115 1090.6 952.419 1090.6 952.846C1090.6 953.123 1090.66 953.347 1090.76 953.518C1090.87 953.688 1091.05 953.838 1091.31 953.966C1091.57 954.083 1091.95 954.2 1092.44 954.318C1093 954.446 1093.44 954.59 1093.76 954.75C1094.09 954.91 1094.33 955.123 1094.49 955.39C1094.65 955.646 1094.73 955.987 1094.73 956.414C1094.73 957.032 1094.52 957.555 1094.09 957.982C1093.68 958.408 1093 958.622 1092.08 958.622ZM1099.64 958.622C1097.49 958.622 1096.41 957.342 1096.41 954.782C1096.41 953.555 1096.68 952.595 1097.23 951.902C1097.78 951.208 1098.59 950.862 1099.64 950.862C1100.52 950.862 1101.19 951.123 1101.66 951.646C1102.13 952.168 1102.36 952.894 1102.36 953.822C1102.36 953.928 1102.35 954.099 1102.33 954.334L1101.52 955.15L1097.36 955.118C1097.38 956.003 1097.57 956.67 1097.95 957.118C1098.33 957.555 1098.91 957.774 1099.69 957.774C1100.16 957.774 1100.56 957.726 1100.89 957.63C1101.22 957.523 1101.56 957.363 1101.92 957.15L1102.24 957.902C1101.84 958.136 1101.45 958.318 1101.05 958.446C1100.67 958.563 1100.2 958.622 1099.64 958.622ZM1101.37 954.334C1101.44 954.078 1101.47 953.822 1101.47 953.566C1101.47 952.99 1101.31 952.536 1100.99 952.206C1100.67 951.875 1100.2 951.71 1099.58 951.71C1098.79 951.71 1098.23 951.928 1097.9 952.366C1097.57 952.803 1097.38 953.48 1097.34 954.398L1101.37 954.334ZM1104.41 951.022H1105.19L1105.27 952.462H1105.41C1105.66 951.992 1106 951.619 1106.44 951.342C1106.89 951.064 1107.36 950.926 1107.86 950.926C1107.94 950.926 1108.03 950.968 1108.13 951.054C1108.25 951.128 1108.33 951.203 1108.37 951.278L1108.26 952.03H1107.61C1107.06 952.03 1106.59 952.152 1106.2 952.398C1105.81 952.643 1105.54 952.99 1105.37 953.438V958.478H1104.41V951.022ZM1110.17 950.99H1110.99L1111.07 952.11H1111.18C1112.01 951.278 1112.93 950.862 1113.95 950.862C1114.62 950.862 1115.11 951 1115.43 951.278C1115.77 951.544 1115.93 951.992 1115.93 952.622V958.478H1114.97V951.918C1114.64 951.8 1114.24 951.742 1113.77 951.742C1113.24 951.742 1112.74 951.843 1112.28 952.046C1111.83 952.238 1111.45 952.504 1111.13 952.846V958.478H1110.17V950.99ZM1120 958.622C1119.31 958.622 1118.78 958.456 1118.4 958.126C1118.04 957.784 1117.86 957.326 1117.86 956.75C1117.86 955.95 1118.15 955.352 1118.74 954.958C1119.33 954.552 1120.15 954.35 1121.2 954.35C1121.56 954.35 1121.97 954.371 1122.44 954.414V953.326C1122.44 952.686 1122.31 952.248 1122.05 952.014C1121.8 951.768 1121.35 951.646 1120.71 951.646C1120.26 951.646 1119.85 951.672 1119.48 951.726L1119.32 952.878H1118.6C1118.48 952.547 1118.42 952.222 1118.42 951.902V951.598C1118.76 951.406 1119.18 951.235 1119.67 951.086C1120.17 950.936 1120.64 950.862 1121.09 950.862C1121.83 950.862 1122.4 951.064 1122.8 951.47C1123.21 951.864 1123.41 952.435 1123.41 953.182V958.478H1122.58L1122.52 957.422H1122.39C1122.11 957.795 1121.76 958.088 1121.35 958.302C1120.94 958.515 1120.5 958.622 1120 958.622ZM1120.16 957.838C1120.63 957.838 1121.07 957.726 1121.48 957.502C1121.88 957.278 1122.22 956.968 1122.48 956.574V955.15C1122 955.064 1121.47 955.022 1120.88 955.022C1120.18 955.022 1119.63 955.08 1119.24 955.198C1119.11 955.443 1119.01 955.678 1118.95 955.902C1118.9 956.115 1118.87 956.35 1118.87 956.606C1118.87 957.064 1118.98 957.384 1119.19 957.566C1119.41 957.747 1119.74 957.838 1120.16 957.838ZM1125.86 950.99H1126.66L1126.75 952.078H1126.87C1127.7 951.267 1128.58 950.862 1129.52 950.862C1130.11 950.862 1130.55 950.958 1130.85 951.15C1131.16 951.331 1131.35 951.64 1131.43 952.078H1131.54C1132.35 951.267 1133.24 950.862 1134.21 950.862C1134.89 950.862 1135.39 950.99 1135.71 951.246C1136.03 951.502 1136.19 951.96 1136.19 952.622V958.478H1135.22V951.918C1134.87 951.8 1134.48 951.742 1134.05 951.742C1133.57 951.742 1133.11 951.832 1132.66 952.014C1132.22 952.184 1131.84 952.435 1131.51 952.766V958.478H1130.55V951.918C1130.19 951.8 1129.8 951.742 1129.38 951.742C1128.89 951.742 1128.42 951.832 1127.97 952.014C1127.53 952.195 1127.15 952.451 1126.82 952.782V958.478H1125.86V950.99ZM1141.52 958.622C1139.36 958.622 1138.29 957.342 1138.29 954.782C1138.29 953.555 1138.56 952.595 1139.1 951.902C1139.66 951.208 1140.46 950.862 1141.52 950.862C1142.39 950.862 1143.06 951.123 1143.53 951.646C1144 952.168 1144.24 952.894 1144.24 953.822C1144.24 953.928 1144.23 954.099 1144.21 954.334L1143.39 955.15L1139.23 955.118C1139.25 956.003 1139.45 956.67 1139.82 957.118C1140.21 957.555 1140.79 957.774 1141.57 957.774C1142.04 957.774 1142.44 957.726 1142.77 957.63C1143.1 957.523 1143.44 957.363 1143.79 957.15L1144.11 957.902C1143.72 958.136 1143.32 958.318 1142.93 958.446C1142.54 958.563 1142.07 958.622 1141.52 958.622ZM1143.25 954.334C1143.31 954.078 1143.34 953.822 1143.34 953.566C1143.34 952.99 1143.18 952.536 1142.86 952.206C1142.54 951.875 1142.07 951.71 1141.45 951.71C1140.66 951.71 1140.1 951.928 1139.77 952.366C1139.44 952.803 1139.26 953.48 1139.21 954.398L1143.25 954.334Z" fill="#131C2B"/>
<path fill-rule="evenodd" clip-rule="evenodd" d="M1083.25 1065.56H1794.75C1819.02 1065.56 1838.72 1085.27 1838.72 1109.54C1838.72 1133.81 1819.02 1153.52 1794.75 1153.52H1083.25C1058.98 1153.52 1039.28 1133.81 1039.28 1109.54C1039.28 1085.27 1058.98 1065.56 1083.25 1065.56Z" fill="#F7F7F9"/>
<g opacity="0.4">
<g opacity="0.4">
<path opacity="0.4" fill-rule="evenodd" clip-rule="evenodd" d="M1768.77 1121.38C1768.77 1123.59 1770.56 1125.37 1772.77 1125.37H1792.75C1794.96 1125.37 1796.75 1123.59 1796.75 1121.38V1105.39C1796.75 1103.18 1794.96 1101.39 1792.75 1101.39H1790.76C1790.76 1096.97 1787.18 1093.39 1782.76 1093.39C1778.34 1093.39 1774.77 1096.97 1774.77 1101.39H1772.77C1770.56 1101.39 1768.77 1103.18 1768.77 1105.39V1121.38ZM1778.76 1101.39C1778.76 1099.18 1780.55 1097.39 1782.76 1097.39C1784.97 1097.39 1786.76 1099.18 1786.76 1101.39H1778.76ZM1772.77 1105.39V1121.38H1792.75V1105.39H1772.77ZM1786.76 1113.38C1786.76 1111.17 1784.97 1109.38 1782.76 1109.38C1780.55 1109.38 1778.76 1111.17 1778.76 1113.38C1778.76 1115.59 1780.55 1117.38 1782.76 1117.38C1784.97 1117.38 1786.76 1115.59 1786.76 1113.38Z" fill="#131C2B"/>
</g>
</g>
<path d="M1080.56 1096.81C1081.53 1096.54 1082.41 1096.41 1083.2 1096.41C1085.69 1096.41 1086.93 1097.51 1086.93 1099.71C1086.93 1100.86 1086.63 1101.71 1086.03 1102.27C1085.45 1102.82 1084.49 1103.1 1083.15 1103.1H1081.57V1106.4H1080.56V1096.81ZM1083.03 1102.19C1083.57 1102.19 1084.01 1102.17 1084.35 1102.14C1084.7 1102.11 1085.03 1102.04 1085.35 1101.95C1085.73 1101.41 1085.92 1100.68 1085.92 1099.76C1085.92 1098.9 1085.69 1098.29 1085.22 1097.92C1084.76 1097.53 1084.08 1097.34 1083.19 1097.34C1082.57 1097.34 1082.03 1097.4 1081.57 1097.52V1102.19H1083.03ZM1090.38 1106.54C1089.69 1106.54 1089.15 1106.37 1088.78 1106.04C1088.42 1105.7 1088.24 1105.24 1088.24 1104.67C1088.24 1103.87 1088.53 1103.27 1089.12 1102.88C1089.7 1102.47 1090.52 1102.27 1091.58 1102.27C1091.93 1102.27 1092.34 1102.29 1092.81 1102.33V1101.24C1092.81 1100.6 1092.68 1100.17 1092.43 1099.93C1092.17 1099.69 1091.72 1099.56 1091.08 1099.56C1090.64 1099.56 1090.22 1099.59 1089.85 1099.64L1089.69 1100.8H1088.97C1088.85 1100.46 1088.8 1100.14 1088.8 1099.82V1099.52C1089.14 1099.32 1089.55 1099.15 1090.04 1099C1090.54 1098.85 1091.02 1098.78 1091.47 1098.78C1092.2 1098.78 1092.77 1098.98 1093.18 1099.39C1093.58 1099.78 1093.79 1100.35 1093.79 1101.1V1106.4H1092.96L1092.89 1105.34H1092.76C1092.49 1105.71 1092.14 1106.01 1091.72 1106.22C1091.32 1106.43 1090.87 1106.54 1090.38 1106.54ZM1090.54 1105.76C1091.01 1105.76 1091.45 1105.64 1091.85 1105.42C1092.26 1105.2 1092.59 1104.89 1092.86 1104.49V1103.07C1092.38 1102.98 1091.85 1102.94 1091.26 1102.94C1090.56 1102.94 1090.01 1103 1089.61 1103.12C1089.48 1103.36 1089.39 1103.6 1089.32 1103.82C1089.27 1104.03 1089.24 1104.27 1089.24 1104.52C1089.24 1104.98 1089.35 1105.3 1089.56 1105.48C1089.79 1105.66 1090.11 1105.76 1090.54 1105.76ZM1098.2 1106.54C1097.27 1106.54 1096.45 1106.36 1095.74 1106L1096.04 1105.21C1096.75 1105.55 1097.5 1105.72 1098.31 1105.72C1098.87 1105.72 1099.34 1105.66 1099.74 1105.53C1099.87 1105.22 1099.93 1104.88 1099.93 1104.51C1099.93 1104.2 1099.89 1103.96 1099.8 1103.8C1099.72 1103.63 1099.56 1103.49 1099.34 1103.39C1099.12 1103.28 1098.79 1103.18 1098.35 1103.08C1097.49 1102.89 1096.85 1102.64 1096.43 1102.33C1096.01 1102.02 1095.8 1101.56 1095.8 1100.94C1095.8 1100.33 1096.02 1099.82 1096.46 1099.4C1096.91 1098.99 1097.58 1098.78 1098.47 1098.78C1099.27 1098.78 1099.96 1098.93 1100.52 1099.24V1099.64C1100.52 1099.97 1100.46 1100.32 1100.33 1100.67H1099.69L1099.58 1099.64C1099.23 1099.59 1098.84 1099.56 1098.41 1099.56C1097.8 1099.56 1097.37 1099.66 1097.11 1099.85C1096.86 1100.03 1096.73 1100.34 1096.73 1100.76C1096.73 1101.04 1096.78 1101.26 1096.89 1101.44C1097 1101.61 1097.18 1101.76 1097.43 1101.88C1097.7 1102 1098.08 1102.12 1098.57 1102.24C1099.12 1102.36 1099.56 1102.51 1099.88 1102.67C1100.21 1102.83 1100.46 1103.04 1100.62 1103.31C1100.78 1103.56 1100.86 1103.9 1100.86 1104.33C1100.86 1104.95 1100.64 1105.47 1100.22 1105.9C1099.8 1106.33 1099.13 1106.54 1098.2 1106.54ZM1104.9 1106.54C1103.98 1106.54 1103.15 1106.36 1102.44 1106L1102.74 1105.21C1103.45 1105.55 1104.21 1105.72 1105.02 1105.72C1105.57 1105.72 1106.05 1105.66 1106.44 1105.53C1106.57 1105.22 1106.63 1104.88 1106.63 1104.51C1106.63 1104.2 1106.59 1103.96 1106.5 1103.8C1106.42 1103.63 1106.26 1103.49 1106.04 1103.39C1105.83 1103.28 1105.5 1103.18 1105.05 1103.08C1104.19 1102.89 1103.55 1102.64 1103.13 1102.33C1102.71 1102.02 1102.5 1101.56 1102.5 1100.94C1102.5 1100.33 1102.72 1099.82 1103.16 1099.4C1103.61 1098.99 1104.28 1098.78 1105.18 1098.78C1105.98 1098.78 1106.66 1098.93 1107.22 1099.24V1099.64C1107.22 1099.97 1107.16 1100.32 1107.03 1100.67H1106.39L1106.28 1099.64C1105.93 1099.59 1105.54 1099.56 1105.11 1099.56C1104.5 1099.56 1104.07 1099.66 1103.82 1099.85C1103.56 1100.03 1103.43 1100.34 1103.43 1100.76C1103.43 1101.04 1103.49 1101.26 1103.59 1101.44C1103.7 1101.61 1103.88 1101.76 1104.14 1101.88C1104.4 1102 1104.78 1102.12 1105.27 1102.24C1105.83 1102.36 1106.26 1102.51 1106.58 1102.67C1106.91 1102.83 1107.16 1103.04 1107.32 1103.31C1107.48 1103.56 1107.56 1103.9 1107.56 1104.33C1107.56 1104.95 1107.35 1105.47 1106.92 1105.9C1106.5 1106.33 1105.83 1106.54 1104.9 1106.54ZM1111 1106.4C1110.17 1104.07 1109.44 1101.59 1108.81 1098.96L1109.76 1098.86C1110.46 1101.8 1111.05 1104 1111.53 1105.44H1111.66C1112.37 1103.63 1112.96 1101.96 1113.42 1100.43C1113.38 1100.26 1113.28 1099.8 1113.12 1099.05L1113.98 1098.96C1114.51 1101.29 1115.14 1103.47 1115.85 1105.48H1116C1116.55 1104.01 1117.22 1101.79 1118 1098.83L1118.92 1098.94C1118.44 1100.61 1118.03 1102.01 1117.68 1103.13C1117.33 1104.24 1116.96 1105.33 1116.54 1106.4H1115.32C1114.71 1104.73 1114.2 1103.22 1113.82 1101.85H1113.74C1113.53 1102.49 1113.08 1103.75 1112.4 1105.63L1112.11 1106.4H1111ZM1123.08 1106.54C1122.04 1106.54 1121.28 1106.21 1120.8 1105.55C1120.32 1104.88 1120.08 1103.94 1120.08 1102.73C1120.08 1101.47 1120.34 1100.49 1120.85 1099.79C1121.36 1099.07 1122.23 1098.72 1123.44 1098.72C1124.47 1098.72 1125.22 1099.06 1125.7 1099.76C1126.19 1100.44 1126.44 1101.39 1126.44 1102.6C1126.44 1103.85 1126.18 1104.82 1125.67 1105.52C1125.16 1106.2 1124.29 1106.54 1123.08 1106.54ZM1123.35 1105.69C1123.99 1105.69 1124.53 1105.58 1124.98 1105.36C1125.31 1104.77 1125.48 1103.92 1125.48 1102.8C1125.48 1101.66 1125.3 1100.85 1124.96 1100.35C1124.63 1099.84 1124.04 1099.58 1123.17 1099.58C1122.5 1099.58 1121.96 1099.69 1121.54 1099.92C1121.39 1100.19 1121.27 1100.57 1121.17 1101.04C1121.09 1101.49 1121.04 1102 1121.04 1102.56C1121.04 1103.3 1121.11 1103.9 1121.25 1104.36C1121.39 1104.81 1121.62 1105.15 1121.96 1105.37C1122.3 1105.58 1122.76 1105.69 1123.35 1105.69ZM1128.59 1098.94H1129.38L1129.46 1100.38H1129.6C1129.85 1099.91 1130.19 1099.54 1130.62 1099.26C1131.07 1098.98 1131.55 1098.84 1132.05 1098.84C1132.12 1098.84 1132.21 1098.89 1132.32 1098.97C1132.44 1099.05 1132.52 1099.12 1132.56 1099.2L1132.45 1099.95H1131.79C1131.25 1099.95 1130.78 1100.07 1130.38 1100.32C1130 1100.56 1129.72 1100.91 1129.55 1101.36V1106.4H1128.59V1098.94ZM1136.38 1106.54C1135.38 1106.54 1134.66 1106.21 1134.21 1105.55C1133.76 1104.88 1133.54 1103.9 1133.54 1102.64C1133.54 1101.54 1133.76 1100.62 1134.21 1099.88C1134.66 1099.15 1135.36 1098.78 1136.32 1098.78C1137.21 1098.78 1137.99 1099.12 1138.67 1099.8H1138.78L1138.72 1098.59V1095.69H1139.68V1106.4H1138.86L1138.8 1105.34H1138.67C1138.07 1106.14 1137.31 1106.54 1136.38 1106.54ZM1136.62 1105.69C1137.11 1105.69 1137.54 1105.57 1137.89 1105.32C1138.25 1105.07 1138.53 1104.75 1138.72 1104.38V1100.6C1138.38 1100.26 1138.04 1100.02 1137.71 1099.87C1137.38 1099.71 1137.01 1099.63 1136.61 1099.63C1135.89 1099.63 1135.37 1099.89 1135.04 1100.41C1134.71 1100.92 1134.54 1101.68 1134.54 1102.68C1134.54 1103.72 1134.69 1104.48 1134.99 1104.97C1135.3 1105.45 1135.85 1105.69 1136.62 1105.69Z" fill="#131C2B"/>
<path fill-rule="evenodd" clip-rule="evenodd" d="M1083.25 1273.45H1794.75C1819.02 1273.45 1838.72 1293.15 1838.72 1317.42C1838.72 1341.69 1819.02 1361.4 1794.75 1361.4H1083.25C1058.98 1361.4 1039.28 1341.69 1039.28 1317.42C1039.28 1293.15 1058.98 1273.45 1083.25 1273.45Z" fill="#F9C73D"/>
<path d="M1400.34 1304.61H1401.35V1313.51H1405.86V1314.44H1400.34V1304.61ZM1410.2 1314.58C1409.16 1314.58 1408.4 1314.25 1407.92 1313.59C1407.44 1312.92 1407.2 1311.98 1407.2 1310.77C1407.2 1309.51 1407.46 1308.53 1407.97 1307.83C1408.48 1307.11 1409.35 1306.76 1410.56 1306.76C1411.59 1306.76 1412.34 1307.1 1412.82 1307.8C1413.31 1308.48 1413.56 1309.43 1413.56 1310.64C1413.56 1311.89 1413.3 1312.86 1412.79 1313.56C1412.28 1314.24 1411.41 1314.58 1410.2 1314.58ZM1410.47 1313.73C1411.11 1313.73 1411.65 1313.62 1412.1 1313.4C1412.43 1312.81 1412.6 1311.96 1412.6 1310.84C1412.6 1309.71 1412.43 1308.89 1412.08 1308.39C1411.75 1307.88 1411.16 1307.62 1410.29 1307.62C1409.62 1307.62 1409.08 1307.73 1408.66 1307.96C1408.51 1308.23 1408.39 1308.61 1408.29 1309.08C1408.21 1309.53 1408.16 1310.04 1408.16 1310.6C1408.16 1311.34 1408.23 1311.95 1408.37 1312.4C1408.51 1312.85 1408.75 1313.19 1409.08 1313.41C1409.42 1313.63 1409.88 1313.73 1410.47 1313.73ZM1418.37 1317.51C1417.87 1317.51 1417.39 1317.45 1416.95 1317.35C1416.5 1317.24 1416.12 1317.1 1415.81 1316.92L1416.1 1316.16C1416.41 1316.31 1416.75 1316.43 1417.14 1316.52C1417.53 1316.6 1417.92 1316.64 1418.29 1316.64C1418.76 1316.64 1419.15 1316.61 1419.47 1316.55C1419.8 1316.48 1420.1 1316.38 1420.35 1316.23V1314.2L1420.4 1313.19H1420.29C1419.6 1313.98 1418.82 1314.37 1417.97 1314.37C1417.05 1314.37 1416.38 1314.05 1415.95 1313.4C1415.54 1312.73 1415.33 1311.88 1415.33 1310.82C1415.33 1309.55 1415.54 1308.57 1415.97 1307.88C1416.41 1307.17 1417.13 1306.82 1418.15 1306.82C1419.07 1306.82 1419.79 1307.25 1420.29 1308.1H1420.39L1420.47 1306.93H1421.28V1315.33C1421.28 1316.07 1421.02 1316.61 1420.5 1316.96C1419.98 1317.33 1419.27 1317.51 1418.37 1317.51ZM1418.18 1313.54C1419.01 1313.54 1419.72 1313.15 1420.32 1312.37V1308.85C1419.72 1308.05 1419.03 1307.65 1418.23 1307.65C1417.51 1307.65 1417.01 1307.91 1416.72 1308.42C1416.44 1308.92 1416.31 1309.69 1416.31 1310.72C1416.31 1311.67 1416.46 1312.38 1416.75 1312.85C1417.06 1313.31 1417.54 1313.54 1418.18 1313.54ZM1423.78 1304.08H1424.78V1305.57H1423.78V1304.08ZM1423.79 1306.96H1424.74V1314.44H1423.79V1306.96ZM1427.32 1306.95H1428.14L1428.22 1308.07H1428.33C1429.16 1307.24 1430.09 1306.82 1431.1 1306.82C1431.77 1306.82 1432.27 1306.96 1432.59 1307.24C1432.92 1307.5 1433.08 1307.95 1433.08 1308.58V1314.44H1432.12V1307.88C1431.79 1307.76 1431.39 1307.7 1430.92 1307.7C1430.39 1307.7 1429.89 1307.8 1429.44 1308C1428.99 1308.2 1428.6 1308.46 1428.28 1308.8V1314.44H1427.32V1306.95Z" fill="#131C2B"/>
<path d="M1375.02 1424.54C1374.32 1424.54 1373.77 1424.34 1373.37 1423.94C1372.98 1423.54 1372.78 1422.98 1372.78 1422.28C1372.78 1421.39 1373.04 1420.75 1373.55 1420.36C1374.06 1419.95 1374.86 1419.75 1375.95 1419.75C1376.36 1419.75 1376.71 1419.77 1377.02 1419.81C1377.34 1419.85 1377.7 1419.92 1378.09 1420.02V1418.9C1378.09 1418.38 1378.04 1417.98 1377.92 1417.7C1377.8 1417.41 1377.6 1417.21 1377.31 1417.09C1377.02 1416.97 1376.61 1416.9 1376.08 1416.9C1375.47 1416.9 1374.86 1416.96 1374.24 1417.08V1418.28H1373.53C1373.39 1417.86 1373.31 1417.44 1373.31 1417.01V1416.49C1373.88 1416.32 1374.38 1416.19 1374.81 1416.12C1375.26 1416.03 1375.74 1415.99 1376.25 1415.99C1377.28 1415.99 1378 1416.22 1378.43 1416.68C1378.86 1417.14 1379.07 1417.81 1379.07 1418.71V1424.38H1378.11V1420.81C1377.44 1420.66 1376.74 1420.58 1376.01 1420.58C1375.25 1420.58 1374.59 1420.65 1374.03 1420.79C1373.86 1421.25 1373.77 1421.69 1373.77 1422.12C1373.77 1422.65 1373.88 1423.04 1374.09 1423.29C1374.31 1423.52 1374.63 1423.64 1375.07 1423.64C1375.49 1423.64 1375.84 1423.59 1376.13 1423.48L1376.37 1424.31C1375.9 1424.46 1375.45 1424.54 1375.02 1424.54ZM1373.8 1414.1L1375.45 1413.89H1376.39V1412.92H1377.18V1413.89H1378.28V1412.92H1379.06V1414.73H1373.8V1414.1ZM1385.72 1424.54C1385.13 1424.54 1384.6 1424.43 1384.12 1424.23C1383.64 1424.03 1383.19 1423.7 1382.76 1423.25H1382.63L1382.57 1424.38H1381.66V1416.15H1382.65V1422.45C1383.47 1423.23 1384.42 1423.62 1385.51 1423.62C1385.79 1423.62 1386.02 1423.61 1386.22 1423.59C1386.41 1423.56 1386.6 1423.51 1386.79 1423.43V1416.15H1387.78V1422.93C1387.78 1424 1387.1 1424.54 1385.72 1424.54ZM1392.55 1424.54C1391.42 1424.54 1390.52 1424.32 1389.85 1423.89L1390.15 1423.05C1390.56 1423.25 1390.93 1423.4 1391.29 1423.49C1391.64 1423.58 1392.08 1423.62 1392.6 1423.62C1393.3 1423.62 1393.88 1423.53 1394.34 1423.33C1394.51 1423.04 1394.6 1422.66 1394.6 1422.2C1394.6 1421.74 1394.45 1421.4 1394.15 1421.17C1393.86 1420.94 1393.35 1420.78 1392.6 1420.69C1391.78 1420.61 1391.13 1420.39 1390.65 1420.02C1390.18 1419.65 1389.94 1419.17 1389.94 1418.58C1389.94 1417.84 1390.18 1417.22 1390.66 1416.73C1391.15 1416.24 1391.89 1415.99 1392.87 1415.99C1393.37 1415.99 1393.8 1416.02 1394.17 1416.09C1394.54 1416.15 1394.91 1416.26 1395.27 1416.42L1394.81 1417.25C1394.49 1417.14 1394.16 1417.05 1393.81 1417C1393.48 1416.93 1393.09 1416.9 1392.65 1416.9C1392.07 1416.9 1391.61 1416.97 1391.27 1417.09C1391.05 1417.44 1390.93 1417.83 1390.93 1418.26C1390.93 1418.63 1390.99 1418.9 1391.11 1419.09C1391.24 1419.29 1391.44 1419.43 1391.72 1419.53C1392.01 1419.61 1392.44 1419.69 1393.01 1419.77C1393.83 1419.88 1394.45 1420.11 1394.9 1420.44C1395.36 1420.77 1395.59 1421.26 1395.59 1421.91C1395.59 1422.68 1395.35 1423.31 1394.85 1423.8C1394.37 1424.29 1393.61 1424.54 1392.55 1424.54ZM1397.77 1416.15H1398.73V1419.06L1401.89 1418.93C1402.12 1418.71 1402.3 1418.4 1402.45 1417.99C1402.54 1417.73 1402.61 1417.45 1402.68 1417.13C1402.74 1416.8 1402.8 1416.44 1402.85 1416.07L1403.85 1416.18C1403.75 1417.22 1403.54 1418.03 1403.21 1418.61C1403.13 1418.74 1402.99 1418.88 1402.79 1419.01C1402.59 1419.14 1402.37 1419.25 1402.13 1419.33C1402.5 1419.44 1402.77 1419.63 1402.97 1419.89C1403.17 1420.15 1403.32 1420.52 1403.41 1421.01L1404.01 1424.38H1403L1402.45 1421.19C1402.37 1420.7 1402.21 1420.35 1401.99 1420.15C1401.77 1419.95 1401.41 1419.85 1400.92 1419.85H1398.73V1424.38H1397.77V1416.15ZM1403.16 1414.76C1402.22 1414.76 1401.43 1414.62 1400.79 1414.34V1412.73H1401.73V1413.75C1402.08 1413.87 1402.56 1413.93 1403.17 1413.93C1404.13 1413.93 1405.02 1413.64 1405.83 1413.06L1406.28 1413.89C1405.43 1414.47 1404.39 1414.76 1403.16 1414.76ZM1408.04 1424.54C1407.33 1424.54 1406.79 1424.34 1406.39 1423.94C1406 1423.54 1405.8 1422.98 1405.8 1422.28C1405.8 1421.39 1406.05 1420.75 1406.57 1420.36C1407.08 1419.95 1407.88 1419.75 1408.97 1419.75C1409.37 1419.75 1409.73 1419.77 1410.04 1419.81C1410.36 1419.85 1410.72 1419.92 1411.11 1420.02V1418.9C1411.11 1418.38 1411.05 1417.98 1410.93 1417.7C1410.82 1417.41 1410.61 1417.21 1410.33 1417.09C1410.04 1416.97 1409.63 1416.9 1409.09 1416.9C1408.49 1416.9 1407.87 1416.96 1407.25 1417.08V1418.28H1406.55C1406.4 1417.88 1406.33 1417.46 1406.33 1417.01V1416.49C1406.89 1416.32 1407.39 1416.19 1407.83 1416.12C1408.28 1416.03 1408.76 1415.99 1409.27 1415.99C1410.17 1415.99 1410.84 1416.18 1411.3 1416.55L1411.94 1416.02L1413.27 1415.73L1413.48 1416.61L1411.73 1417.08C1411.97 1417.46 1412.09 1418.01 1412.09 1418.71V1424.38H1411.13V1420.81C1410.45 1420.66 1409.76 1420.58 1409.03 1420.58C1408.26 1420.58 1407.6 1420.65 1407.05 1420.79C1406.88 1421.25 1406.79 1421.69 1406.79 1422.12C1406.79 1422.65 1406.9 1423.04 1407.11 1423.29C1407.32 1423.52 1407.65 1423.64 1408.09 1423.64C1408.5 1423.64 1408.85 1423.59 1409.14 1423.48L1409.38 1424.31C1408.91 1424.46 1408.47 1424.54 1408.04 1424.54ZM1417.2 1424.46C1416.4 1424.46 1415.82 1424.13 1415.47 1423.48C1415.12 1422.82 1414.94 1421.76 1414.94 1420.29C1414.94 1419.22 1415.02 1418.37 1415.17 1417.75C1415.32 1417.13 1415.56 1416.68 1415.9 1416.41C1416.26 1416.13 1416.74 1415.99 1417.36 1415.99C1417.74 1415.99 1418.12 1416.07 1418.5 1416.21L1418.3 1417.01C1417.97 1416.93 1417.68 1416.89 1417.41 1416.89C1417 1416.89 1416.69 1416.99 1416.48 1417.21C1416.28 1417.42 1416.13 1417.77 1416.05 1418.26C1415.96 1418.74 1415.92 1419.42 1415.92 1420.29C1415.92 1421.11 1415.96 1421.75 1416.05 1422.21C1416.13 1422.68 1416.28 1423.03 1416.48 1423.24C1416.68 1423.45 1416.96 1423.56 1417.31 1423.56C1417.84 1423.56 1418.2 1423.39 1418.42 1423.05V1420.71H1419.34V1423.05C1419.49 1423.22 1419.68 1423.35 1419.9 1423.43C1420.14 1423.52 1420.37 1423.56 1420.61 1423.56C1420.9 1423.56 1421.15 1423.53 1421.38 1423.46V1416.15H1422.37V1423.99C1421.95 1424.3 1421.45 1424.46 1420.86 1424.46C1420.46 1424.46 1420.11 1424.39 1419.81 1424.26C1419.51 1424.12 1419.23 1423.91 1418.98 1423.62H1418.86C1418.66 1423.91 1418.43 1424.12 1418.18 1424.26C1417.92 1424.39 1417.6 1424.46 1417.2 1424.46ZM1421.42 1412.13H1422.36V1414.73H1421.42V1412.13ZM1427.72 1417.19C1427.29 1417.03 1426.8 1416.95 1426.23 1416.95C1425.87 1416.95 1425.54 1416.97 1425.26 1417.01C1424.97 1417.05 1424.66 1417.11 1424.34 1417.21L1424.15 1416.42C1424.86 1416.19 1425.59 1416.07 1426.34 1416.07C1427.1 1416.07 1427.68 1416.22 1428.09 1416.52C1428.5 1416.81 1428.71 1417.22 1428.71 1417.75V1424.38H1427.72V1417.19ZM1433.42 1424.54C1432.02 1424.54 1431.31 1424 1431.31 1422.93V1416.15H1432.3V1423.43C1432.5 1423.51 1432.69 1423.56 1432.88 1423.59C1433.08 1423.61 1433.33 1423.62 1433.62 1423.62C1434.71 1423.62 1435.72 1423.21 1436.62 1422.38V1416.15H1437.62V1424.38H1436.72L1436.64 1423.17H1436.51C1435.66 1424.08 1434.63 1424.54 1433.42 1424.54Z" fill="#131C2B"/>
<path fill-rule="evenodd" clip-rule="evenodd" d="M1403.59 470.476C1403.59 470.476 1375.06 438.903 1394.34 428.147C1410.09 419.357 1447.49 414.274 1471.34 419.577C1476.67 420.763 1482.51 422.754 1486 424.664C1505.11 435.112 1455.9 528.36 1441.34 549.679C1441.34 549.679 1427.37 496.787 1437.27 459.604C1437.27 459.604 1430.55 491.416 1443.58 531.522C1444.66 534.862 1447.34 535.08 1449.11 532.162C1463.94 507.661 1480.43 474.964 1485.49 449.742C1490.48 424.93 1474.41 424.26 1467.22 423.667C1415.08 419.364 1390.81 449.035 1403.59 470.476V470.476Z" fill="#F9C73D"/>
<path d="M1441.31 407.953C1459 407.953 1473.34 393.594 1473.34 375.881C1473.34 358.168 1459 343.809 1441.31 343.809C1423.62 343.809 1409.28 358.168 1409.28 375.881C1409.28 393.594 1423.62 407.953 1441.31 407.953Z" fill="#F9C73D"/>
<path fill-rule="evenodd" clip-rule="evenodd" d="M1151.56 688.444C1155.96 690.289 1160.78 691.212 1166.02 691.212C1171.26 691.212 1176.08 690.289 1180.47 688.444C1184.87 686.598 1188.64 684.057 1191.78 680.818C1194.91 677.58 1197.37 673.759 1199.15 669.354C1200.93 664.95 1201.82 660.19 1201.82 655.072C1201.82 649.957 1200.93 645.197 1199.15 640.792C1197.37 636.388 1194.91 632.568 1191.78 629.328C1188.64 626.09 1184.87 623.548 1180.47 621.702C1176.08 619.857 1171.26 618.933 1166.02 618.933C1160.78 618.933 1155.96 619.857 1151.56 621.702C1147.16 623.548 1143.39 626.09 1140.26 629.328C1137.12 632.568 1134.66 636.388 1132.88 640.792C1131.1 645.197 1130.21 649.957 1130.21 655.072C1130.21 660.19 1131.1 664.95 1132.88 669.354C1134.66 673.759 1137.12 677.58 1140.26 680.818C1143.39 684.057 1147.16 686.598 1151.56 688.444ZM1176.69 680.282C1173.52 681.74 1169.96 682.469 1166.02 682.469C1162.07 682.469 1158.51 681.74 1155.34 680.282C1152.17 678.825 1149.46 676.867 1147.19 674.406C1144.93 671.945 1143.18 669.047 1141.96 665.71C1140.73 662.375 1140.11 658.83 1140.11 655.072C1140.11 651.317 1140.73 647.772 1141.96 644.436C1143.18 641.1 1144.93 638.202 1147.19 635.74C1149.46 633.28 1152.17 631.32 1155.34 629.863C1158.51 628.406 1162.07 627.677 1166.02 627.677C1169.96 627.677 1173.52 628.406 1176.69 629.863C1179.86 631.32 1182.58 633.28 1184.84 635.74C1187.1 638.202 1188.85 641.1 1190.08 644.436C1191.31 647.772 1191.92 651.317 1191.92 655.072C1191.92 658.83 1191.31 662.375 1190.08 665.71C1188.85 669.047 1187.1 671.945 1184.84 674.406C1182.58 676.867 1179.86 678.825 1176.69 680.282Z" fill="#131C2B"/>
<path fill-rule="evenodd" clip-rule="evenodd" d="M1265.76 675.086C1267.44 677.611 1269.59 679.474 1272.21 680.672C1274.83 681.87 1277.53 682.469 1280.31 682.469C1281.87 682.469 1283.45 682.226 1285.07 681.74C1286.68 681.255 1288.16 680.526 1289.48 679.554C1290.81 678.582 1291.89 677.385 1292.73 675.96C1293.57 674.536 1293.99 672.885 1293.99 671.005C1293.99 668.35 1293.15 666.327 1291.47 664.933C1289.79 663.542 1287.7 662.375 1285.21 661.436C1282.72 660.498 1280.01 659.59 1277.06 658.716C1274.12 657.842 1271.4 656.628 1268.91 655.072C1266.42 653.518 1264.34 651.43 1262.65 648.806C1260.97 646.184 1260.13 642.637 1260.13 638.169C1260.13 636.163 1260.57 634.024 1261.44 631.757C1262.31 629.491 1263.69 627.418 1265.57 625.539C1267.44 623.662 1269.85 622.091 1272.79 620.828C1275.74 619.564 1279.28 618.933 1283.42 618.933C1287.17 618.933 1290.76 619.453 1294.19 620.488C1297.62 621.525 1300.62 623.63 1303.21 626.803L1295.64 633.7C1294.48 631.888 1292.83 630.431 1290.7 629.328C1288.56 628.228 1286.13 627.677 1283.42 627.677C1280.83 627.677 1278.68 628.017 1276.97 628.697C1275.25 629.377 1273.88 630.251 1272.84 631.32C1271.81 632.389 1271.08 633.539 1270.66 634.769C1270.24 636 1270.03 637.134 1270.03 638.169C1270.03 641.083 1270.87 643.317 1272.55 644.873C1274.23 646.427 1276.32 647.689 1278.81 648.661C1281.3 649.632 1284.02 650.507 1286.96 651.284C1289.9 652.061 1292.62 653.147 1295.11 654.538C1297.6 655.932 1299.69 657.81 1301.37 660.173C1303.05 662.538 1303.89 665.793 1303.89 669.937C1303.89 673.239 1303.26 676.22 1302 678.874C1300.74 681.53 1299.04 683.765 1296.9 685.577C1294.77 687.391 1292.25 688.783 1289.34 689.755C1286.43 690.726 1283.32 691.212 1280.02 691.212C1275.62 691.212 1271.45 690.435 1267.51 688.881C1263.56 687.327 1260.42 684.931 1258.09 681.692L1265.76 675.086V675.086Z" fill="#131C2B"/>
<path fill-rule="evenodd" clip-rule="evenodd" d="M1414.02 635.546C1412.08 633.02 1409.62 631.077 1406.64 629.717C1403.67 628.357 1400.59 627.677 1397.42 627.677C1393.54 627.677 1390.03 628.406 1386.9 629.863C1383.76 631.32 1381.08 633.312 1378.84 635.837C1376.61 638.364 1374.88 641.326 1373.65 644.727C1372.42 648.126 1371.81 651.77 1371.81 655.655C1371.81 659.284 1372.39 662.715 1373.56 665.953C1374.72 669.192 1376.4 672.042 1378.6 674.503C1380.8 676.965 1383.49 678.908 1386.65 680.331C1389.82 681.757 1393.41 682.469 1397.42 682.469C1401.37 682.469 1404.83 681.659 1407.81 680.039C1410.78 678.422 1413.3 676.154 1415.37 673.239L1423.23 679.165C1422.71 679.879 1421.81 680.899 1420.52 682.226C1419.22 683.554 1417.51 684.882 1415.37 686.208C1413.24 687.537 1410.67 688.703 1407.66 689.706C1404.65 690.709 1401.18 691.212 1397.23 691.212C1391.8 691.212 1386.9 690.175 1382.53 688.104C1378.16 686.031 1374.44 683.311 1371.37 679.942C1368.3 676.576 1365.95 672.77 1364.34 668.528C1362.72 664.286 1361.91 659.996 1361.91 655.655C1361.91 650.346 1362.79 645.44 1364.53 640.938C1366.28 636.437 1368.72 632.551 1371.86 629.28C1374.99 626.01 1378.76 623.468 1383.16 621.654C1387.56 619.841 1392.41 618.933 1397.72 618.933C1402.24 618.933 1406.69 619.808 1411.06 621.557C1415.42 623.305 1419 625.993 1421.78 629.62L1414.02 635.546V635.546Z" fill="#131C2B"/>
<path fill-rule="evenodd" clip-rule="evenodd" d="M1512.98 620.683H1504.54L1474.27 689.463H1485.14L1491.93 672.462H1524.63L1531.51 689.463H1542.38L1512.98 620.683V620.683ZM1508.42 632.729L1521.23 664.302H1495.23L1508.23 632.729H1508.42V632.729Z" fill="#131C2B"/>
<path fill-rule="evenodd" clip-rule="evenodd" d="M1623.98 620.683H1599.82V689.463H1609.14V659.153H1619.52L1636.98 689.463H1648.63L1629.12 658.085C1631.71 657.826 1634.06 657.129 1636.16 655.995C1638.26 654.863 1640.04 653.47 1641.49 651.819C1642.95 650.167 1644.07 648.321 1644.84 646.281C1645.62 644.241 1646.01 642.12 1646.01 639.918C1646.01 637.78 1645.68 635.563 1645.04 633.263C1644.39 630.965 1643.24 628.891 1641.59 627.046C1639.94 625.199 1637.69 623.679 1634.85 622.48C1632 621.282 1628.38 620.683 1623.98 620.683ZM1621.36 650.993H1609.14V628.843H1621.36C1623.17 628.843 1624.97 628.988 1626.75 629.28C1628.52 629.571 1630.11 630.105 1631.5 630.882C1632.89 631.659 1634.01 632.778 1634.85 634.235C1635.69 635.691 1636.11 637.586 1636.11 639.918C1636.11 642.249 1635.69 644.144 1634.85 645.601C1634.01 647.058 1632.89 648.175 1631.5 648.952C1630.11 649.729 1628.52 650.264 1626.75 650.556C1624.97 650.847 1623.17 650.993 1621.36 650.993V650.993Z" fill="#131C2B"/>
<path fill-rule="evenodd" clip-rule="evenodd" d="M1709.65 675.086C1711.34 677.611 1713.49 679.474 1716.11 680.672C1718.73 681.87 1721.43 682.469 1724.21 682.469C1725.76 682.469 1727.35 682.226 1728.96 681.74C1730.58 681.255 1732.05 680.526 1733.38 679.554C1734.7 678.582 1735.79 677.385 1736.63 675.96C1737.47 674.536 1737.89 672.885 1737.89 671.005C1737.89 668.35 1737.05 666.327 1735.37 664.933C1733.68 663.542 1731.6 662.375 1729.11 661.436C1726.62 660.498 1723.9 659.59 1720.96 658.716C1718.02 657.842 1715.3 656.628 1712.81 655.072C1710.32 653.518 1708.23 651.43 1706.55 648.806C1704.87 646.184 1704.03 642.637 1704.03 638.169C1704.03 636.163 1704.46 634.024 1705.34 631.757C1706.21 629.491 1707.58 627.418 1709.46 625.539C1711.34 623.662 1713.75 622.091 1716.69 620.828C1719.63 619.564 1723.17 618.933 1727.31 618.933C1731.06 618.933 1734.65 619.453 1738.08 620.488C1741.51 621.525 1744.52 623.63 1747.11 626.803L1739.54 633.7C1738.38 631.888 1736.72 630.431 1734.59 629.328C1732.46 628.228 1730.03 627.677 1727.31 627.677C1724.73 627.677 1722.58 628.017 1720.86 628.697C1719.15 629.377 1717.77 630.251 1716.74 631.32C1715.7 632.389 1714.97 633.539 1714.55 634.769C1714.13 636 1713.92 637.134 1713.92 638.169C1713.92 641.083 1714.76 643.317 1716.45 644.873C1718.13 646.427 1720.22 647.689 1722.71 648.661C1725.19 649.632 1727.91 650.507 1730.85 651.284C1733.8 652.061 1736.51 653.147 1739.01 654.538C1741.49 655.932 1743.58 657.81 1745.26 660.173C1746.94 662.538 1747.79 665.793 1747.79 669.937C1747.79 673.239 1747.16 676.22 1745.9 678.874C1744.63 681.53 1742.94 683.765 1740.8 685.577C1738.67 687.391 1736.14 688.783 1733.23 689.755C1730.32 690.726 1727.22 691.212 1723.92 691.212C1719.52 691.212 1715.35 690.435 1711.4 688.881C1707.46 687.327 1704.32 684.931 1701.99 681.692L1709.65 675.086V675.086Z" fill="#131C2B"/>
<path fill-rule="evenodd" clip-rule="evenodd" d="M1131.74 725.695C1131.32 726.743 1131.12 727.892 1131.12 729.141C1131.12 730.39 1131.32 731.543 1131.74 732.599C1132.16 733.655 1132.73 734.566 1133.47 735.328C1134.21 736.092 1135.1 736.686 1136.14 737.109C1137.18 737.534 1138.32 737.746 1139.57 737.746C1140.82 737.746 1141.96 737.534 1143 737.109C1144.04 736.686 1144.93 736.092 1145.67 735.328C1146.41 734.566 1146.99 733.655 1147.4 732.599C1147.82 731.543 1148.03 730.39 1148.03 729.141C1148.03 727.892 1147.82 726.743 1147.4 725.695C1146.99 724.646 1146.41 723.74 1145.67 722.977C1144.93 722.213 1144.04 721.616 1143 721.184C1141.96 720.753 1140.82 720.537 1139.57 720.537C1138.32 720.537 1137.18 720.753 1136.14 721.184C1135.1 721.616 1134.21 722.213 1133.47 722.977C1132.73 723.74 1132.16 724.646 1131.74 725.695V725.695ZM1133.13 731.986C1132.8 731.107 1132.64 730.159 1132.64 729.141C1132.64 728.124 1132.8 727.175 1133.13 726.296C1133.45 725.417 1133.91 724.654 1134.51 724.007C1135.11 723.358 1135.84 722.85 1136.7 722.48C1137.55 722.109 1138.51 721.924 1139.57 721.924C1140.63 721.924 1141.59 722.109 1142.45 722.48C1143.3 722.85 1144.03 723.358 1144.63 724.007C1145.23 724.654 1145.69 725.417 1146.02 726.296C1146.34 727.175 1146.5 728.124 1146.5 729.141C1146.5 730.159 1146.34 731.107 1146.02 731.986C1145.69 732.865 1145.23 733.628 1144.63 734.277C1144.03 734.924 1143.3 735.433 1142.45 735.802C1141.59 736.173 1140.63 736.358 1139.57 736.358C1138.51 736.358 1137.55 736.173 1136.7 735.802C1135.84 735.433 1135.11 734.924 1134.51 734.277C1133.91 733.628 1133.45 732.865 1133.13 731.986Z" fill="#131C2B"/>
<path fill-rule="evenodd" clip-rule="evenodd" d="M1168.54 720.953H1170.5L1180.46 735.294H1180.51V720.953H1182.03V737.329H1180.07L1170.11 722.988H1170.07V737.329H1168.54V720.953Z" fill="#131C2B"/>
<path fill-rule="evenodd" clip-rule="evenodd" d="M1203.61 720.953H1213.61V722.341H1205.13V728.17H1213.08V729.558H1205.13V735.941H1213.98V737.329H1203.61V720.953Z" fill="#131C2B"/>
<path fill-rule="evenodd" clip-rule="evenodd" d="M1257.94 734.299C1258.35 734.994 1258.86 735.51 1259.5 735.849C1260.14 736.189 1260.87 736.358 1261.69 736.358C1262.19 736.358 1262.67 736.281 1263.12 736.127C1263.57 735.973 1263.95 735.756 1264.29 735.479C1264.62 735.202 1264.88 734.866 1265.07 734.473C1265.26 734.08 1265.36 733.636 1265.36 733.143C1265.36 732.572 1265.24 732.102 1265 731.732C1264.76 731.362 1264.44 731.058 1264.04 730.818C1263.64 730.579 1263.19 730.376 1262.69 730.205C1262.19 730.036 1261.67 729.866 1261.14 729.697C1260.61 729.527 1260.1 729.334 1259.6 729.119C1259.1 728.903 1258.65 728.62 1258.24 728.274C1257.84 727.927 1257.52 727.491 1257.29 726.967C1257.05 726.443 1256.93 725.796 1256.93 725.024C1256.93 724.299 1257.07 723.655 1257.35 723.093C1257.64 722.529 1258.02 722.06 1258.51 721.681C1259 721.304 1259.55 721.018 1260.18 720.826C1260.82 720.633 1261.48 720.537 1262.17 720.537C1263.06 720.537 1263.89 720.695 1264.66 721.01C1265.42 721.327 1266.08 721.855 1266.63 722.595L1265.31 723.544C1264.93 723.004 1264.48 722.599 1263.96 722.33C1263.45 722.06 1262.83 721.924 1262.13 721.924C1261.63 721.924 1261.16 721.991 1260.72 722.121C1260.27 722.253 1259.88 722.445 1259.55 722.699C1259.22 722.954 1258.95 723.274 1258.75 723.659C1258.55 724.045 1258.45 724.5 1258.45 725.024C1258.45 725.841 1258.66 726.47 1259.08 726.909C1259.49 727.349 1260.01 727.695 1260.64 727.95C1261.26 728.205 1261.94 728.428 1262.67 728.62C1263.4 728.813 1264.08 729.072 1264.7 729.395C1265.33 729.719 1265.85 730.17 1266.26 730.748C1266.68 731.327 1266.88 732.125 1266.88 733.143C1266.88 733.882 1266.75 734.539 1266.47 735.109C1266.19 735.679 1265.82 736.162 1265.35 736.555C1264.88 736.948 1264.34 737.245 1263.72 737.445C1263.1 737.646 1262.46 737.746 1261.8 737.746C1260.72 737.746 1259.73 737.556 1258.82 737.179C1257.91 736.801 1257.14 736.165 1256.49 735.27L1257.94 734.299V734.299Z" fill="#131C2B"/>
<path fill-rule="evenodd" clip-rule="evenodd" d="M1291.07 722.341H1285.48V720.953H1298.19V722.341H1292.6V737.329H1291.07V722.341Z" fill="#131C2B"/>
<path fill-rule="evenodd" clip-rule="evenodd" d="M1317.36 725.695C1316.95 726.743 1316.74 727.892 1316.74 729.141C1316.74 730.39 1316.95 731.543 1317.36 732.599C1317.78 733.655 1318.35 734.566 1319.09 735.328C1319.83 736.092 1320.72 736.686 1321.76 737.109C1322.8 737.534 1323.94 737.746 1325.19 737.746C1326.44 737.746 1327.58 737.534 1328.62 737.109C1329.66 736.686 1330.55 736.092 1331.29 735.328C1332.03 734.566 1332.61 733.655 1333.02 732.599C1333.44 731.543 1333.65 730.39 1333.65 729.141C1333.65 727.892 1333.44 726.743 1333.02 725.695C1332.61 724.646 1332.03 723.74 1331.29 722.977C1330.55 722.213 1329.66 721.616 1328.62 721.184C1327.58 720.753 1326.44 720.537 1325.19 720.537C1323.94 720.537 1322.8 720.753 1321.76 721.184C1320.72 721.616 1319.83 722.213 1319.09 722.977C1318.35 723.74 1317.78 724.646 1317.36 725.695V725.695ZM1318.75 731.986C1318.42 731.107 1318.26 730.159 1318.26 729.141C1318.26 728.124 1318.42 727.175 1318.75 726.296C1319.07 725.417 1319.53 724.654 1320.13 724.007C1320.73 723.358 1321.46 722.85 1322.32 722.48C1323.17 722.109 1324.13 721.924 1325.19 721.924C1326.25 721.924 1327.21 722.109 1328.07 722.48C1328.92 722.85 1329.65 723.358 1330.25 724.007C1330.85 724.654 1331.31 725.417 1331.64 726.296C1331.96 727.175 1332.12 728.124 1332.12 729.141C1332.12 730.159 1331.96 731.107 1331.64 731.986C1331.31 732.865 1330.85 733.628 1330.25 734.277C1329.65 734.924 1328.92 735.433 1328.07 735.802C1327.21 736.173 1326.25 736.358 1325.19 736.358C1324.13 736.358 1323.17 736.173 1322.32 735.802C1321.46 735.433 1320.73 734.924 1320.13 734.277C1319.53 733.628 1319.07 732.865 1318.75 731.986Z" fill="#131C2B"/>
<path fill-rule="evenodd" clip-rule="evenodd" d="M1358.87 720.953H1354.16V737.329H1355.69V729.558H1359.22C1359.87 729.558 1360.49 729.473 1361.08 729.302C1361.67 729.133 1362.2 728.875 1362.65 728.528C1363.11 728.181 1363.47 727.738 1363.74 727.198C1364.01 726.658 1364.14 726.018 1364.14 725.278C1364.14 724.43 1363.98 723.725 1363.65 723.162C1363.31 722.599 1362.89 722.155 1362.37 721.831C1361.86 721.508 1361.29 721.28 1360.67 721.149C1360.04 721.018 1359.44 720.953 1358.87 720.953V720.953ZM1359.15 728.17H1355.69V722.341H1359.06C1359.49 722.341 1359.92 722.395 1360.35 722.502C1360.78 722.611 1361.17 722.785 1361.5 723.023C1361.83 723.262 1362.1 723.566 1362.31 723.937C1362.51 724.307 1362.62 724.754 1362.62 725.278C1362.62 725.818 1362.52 726.273 1362.32 726.643C1362.12 727.013 1361.85 727.31 1361.53 727.534C1361.21 727.757 1360.84 727.919 1360.42 728.02C1360.01 728.12 1359.58 728.17 1359.15 728.17V728.17Z" fill="#131C2B"/>
<path fill-rule="evenodd" clip-rule="evenodd" d="M1421.09 734.762C1420.3 735.826 1419.39 736.59 1418.36 737.052C1417.33 737.515 1416.21 737.746 1415.01 737.746C1413.76 737.746 1412.62 737.534 1411.58 737.109C1410.54 736.686 1409.65 736.092 1408.91 735.328C1408.17 734.566 1407.59 733.655 1407.18 732.599C1406.76 731.543 1406.55 730.39 1406.55 729.141C1406.55 727.892 1406.76 726.743 1407.18 725.695C1407.59 724.646 1408.17 723.74 1408.91 722.977C1409.65 722.213 1410.54 721.616 1411.58 721.184C1412.62 720.753 1413.76 720.537 1415.01 720.537C1416.12 720.537 1417.15 720.734 1418.12 721.127C1419.08 721.52 1419.92 722.179 1420.65 723.104L1419.4 724.144C1418.89 723.374 1418.24 722.812 1417.45 722.456C1416.65 722.101 1415.84 721.924 1415.01 721.924C1413.95 721.924 1412.99 722.109 1412.13 722.48C1411.28 722.85 1410.55 723.358 1409.95 724.007C1409.35 724.654 1408.89 725.417 1408.56 726.296C1408.24 727.175 1408.08 728.123 1408.08 729.141C1408.08 730.159 1408.24 731.107 1408.56 731.986C1408.89 732.865 1409.35 733.628 1409.95 734.277C1410.55 734.924 1411.28 735.433 1412.13 735.802C1412.99 736.173 1413.95 736.358 1415.01 736.358C1415.43 736.358 1415.86 736.308 1416.3 736.208C1416.75 736.107 1417.19 735.953 1417.61 735.745C1418.03 735.537 1418.44 735.275 1418.82 734.959C1419.21 734.642 1419.55 734.261 1419.84 733.813L1421.09 734.762V734.762Z" fill="#131C2B"/>
<path fill-rule="evenodd" clip-rule="evenodd" d="M1447.56 720.953H1445.99L1438.85 737.329H1440.45L1442.29 732.981H1450.96L1452.74 737.329H1454.44L1447.56 720.953V720.953ZM1442.89 731.593L1446.71 722.619L1450.4 731.593H1442.89Z" fill="#131C2B"/>
<path fill-rule="evenodd" clip-rule="evenodd" d="M1478.19 720.953H1473.9V737.329H1475.42V729.558H1478.26L1482.86 737.329H1484.59L1479.83 729.465C1480.28 729.403 1480.75 729.296 1481.24 729.141C1481.74 728.987 1482.19 728.751 1482.59 728.435C1483 728.12 1483.34 727.707 1483.61 727.198C1483.88 726.689 1484.01 726.042 1484.01 725.255C1484.01 724.546 1483.9 723.945 1483.67 723.451C1483.44 722.957 1483.14 722.549 1482.79 722.225C1482.44 721.901 1482.04 721.655 1481.59 721.485C1481.14 721.315 1480.7 721.192 1480.27 721.115C1479.84 721.037 1479.44 720.991 1479.07 720.976C1478.7 720.961 1478.41 720.953 1478.19 720.953V720.953ZM1478.65 728.17H1475.42V722.341H1478.65C1479.46 722.341 1480.11 722.441 1480.61 722.641C1481.11 722.842 1481.5 723.088 1481.77 723.382C1482.05 723.675 1482.24 723.991 1482.34 724.33C1482.44 724.67 1482.49 724.978 1482.49 725.255C1482.49 725.532 1482.44 725.841 1482.34 726.181C1482.24 726.52 1482.05 726.836 1481.77 727.128C1481.5 727.422 1481.11 727.668 1480.61 727.869C1480.11 728.069 1479.46 728.17 1478.65 728.17V728.17Z" fill="#131C2B"/>
<path fill-rule="evenodd" clip-rule="evenodd" d="M1528.23 734.299C1528.63 734.994 1529.15 735.51 1529.79 735.849C1530.43 736.189 1531.16 736.358 1531.97 736.358C1532.48 736.358 1532.96 736.281 1533.41 736.127C1533.85 735.973 1534.24 735.756 1534.57 735.479C1534.9 735.202 1535.17 734.866 1535.36 734.473C1535.55 734.08 1535.65 733.636 1535.65 733.143C1535.65 732.572 1535.53 732.102 1535.29 731.732C1535.05 731.362 1534.73 731.058 1534.33 730.818C1533.93 730.579 1533.48 730.376 1532.98 730.205C1532.48 730.036 1531.96 729.866 1531.43 729.697C1530.9 729.527 1530.38 729.334 1529.88 729.119C1529.38 728.903 1528.93 728.62 1528.53 728.274C1528.13 727.927 1527.81 727.491 1527.57 726.967C1527.33 726.443 1527.22 725.796 1527.22 725.024C1527.22 724.299 1527.36 723.655 1527.64 723.093C1527.93 722.529 1528.31 722.06 1528.8 721.681C1529.28 721.304 1529.84 721.018 1530.47 720.826C1531.1 720.633 1531.77 720.537 1532.46 720.537C1533.35 720.537 1534.18 720.695 1534.94 721.01C1535.7 721.327 1536.36 721.855 1536.92 722.595L1535.6 723.544C1535.22 723.004 1534.77 722.599 1534.25 722.33C1533.73 722.06 1533.12 721.924 1532.41 721.924C1531.92 721.924 1531.45 721.991 1531 722.121C1530.56 722.253 1530.17 722.445 1529.84 722.699C1529.51 722.954 1529.24 723.274 1529.04 723.659C1528.84 724.045 1528.74 724.5 1528.74 725.024C1528.74 725.841 1528.95 726.47 1529.36 726.909C1529.78 727.349 1530.3 727.695 1530.92 727.95C1531.55 728.205 1532.22 728.428 1532.96 728.62C1533.69 728.813 1534.36 729.072 1534.99 729.395C1535.61 729.719 1536.13 730.17 1536.55 730.748C1536.96 731.327 1537.17 732.125 1537.17 733.143C1537.17 733.882 1537.03 734.539 1536.76 735.109C1536.48 735.679 1536.11 736.162 1535.64 736.555C1535.17 736.948 1534.62 737.245 1534.01 737.445C1533.39 737.646 1532.75 737.746 1532.09 737.746C1531.01 737.746 1530.02 737.556 1529.11 737.179C1528.2 736.801 1527.42 736.165 1526.78 735.27L1528.23 734.299V734.299Z" fill="#131C2B"/>
<path fill-rule="evenodd" clip-rule="evenodd" d="M1557.73 720.953H1567.73V722.341H1559.26V728.17H1567.2V729.558H1559.26V735.941H1568.1V737.329H1557.73V720.953V720.953Z" fill="#131C2B"/>
<path fill-rule="evenodd" clip-rule="evenodd" d="M1592.82 720.953H1588.53V737.329H1590.05V729.558H1592.89L1597.49 737.329H1599.22L1594.46 729.465C1594.91 729.403 1595.38 729.296 1595.87 729.141C1596.36 728.987 1596.81 728.751 1597.22 728.435C1597.63 728.12 1597.97 727.707 1598.24 727.198C1598.51 726.689 1598.64 726.042 1598.64 725.255C1598.64 724.546 1598.53 723.945 1598.3 723.451C1598.07 722.957 1597.77 722.549 1597.42 722.225C1597.07 721.901 1596.66 721.655 1596.22 721.485C1595.77 721.315 1595.33 721.192 1594.9 721.115C1594.47 721.037 1594.07 720.991 1593.7 720.976C1593.33 720.961 1593.04 720.953 1592.82 720.953V720.953ZM1593.28 728.17H1590.05V722.341H1593.28C1594.08 722.341 1594.73 722.441 1595.24 722.641C1595.74 722.842 1596.12 723.088 1596.4 723.382C1596.68 723.675 1596.87 723.991 1596.97 724.33C1597.07 724.67 1597.12 724.978 1597.12 725.255C1597.12 725.532 1597.07 725.841 1596.97 726.181C1596.87 726.52 1596.68 726.836 1596.4 727.128C1596.12 727.422 1595.74 727.668 1595.24 727.869C1594.73 728.069 1594.08 728.17 1593.28 728.17V728.17Z" fill="#131C2B"/>
<path fill-rule="evenodd" clip-rule="evenodd" d="M1617.15 720.953H1618.79L1624.06 735.317L1629.37 720.953H1630.99L1624.77 737.329H1623.25L1617.15 720.953Z" fill="#131C2B"/>
<path fill-rule="evenodd" clip-rule="evenodd" d="M1650.25 720.953H1651.78V737.329H1650.25V720.953Z" fill="#131C2B"/>
<path fill-rule="evenodd" clip-rule="evenodd" d="M1686.82 734.762C1686.03 735.826 1685.13 736.59 1684.09 737.052C1683.06 737.515 1681.95 737.746 1680.74 737.746C1679.5 737.746 1678.35 737.534 1677.32 737.109C1676.28 736.686 1675.39 736.092 1674.65 735.328C1673.91 734.566 1673.33 733.655 1672.91 732.599C1672.5 731.543 1672.29 730.39 1672.29 729.141C1672.29 727.892 1672.5 726.743 1672.91 725.695C1673.33 724.646 1673.91 723.74 1674.65 722.977C1675.39 722.213 1676.28 721.616 1677.32 721.184C1678.35 720.753 1679.5 720.537 1680.74 720.537C1681.85 720.537 1682.89 720.734 1683.85 721.127C1684.81 721.52 1685.66 722.179 1686.38 723.104L1685.13 724.144C1684.63 723.374 1683.98 722.812 1683.18 722.456C1682.39 722.101 1681.58 721.924 1680.74 721.924C1679.68 721.924 1678.72 722.109 1677.87 722.48C1677.02 722.85 1676.29 723.358 1675.69 724.007C1675.09 724.654 1674.62 725.417 1674.3 726.296C1673.98 727.175 1673.81 728.123 1673.81 729.141C1673.81 730.159 1673.98 731.107 1674.3 731.986C1674.62 732.865 1675.09 733.628 1675.69 734.277C1676.29 734.924 1677.02 735.433 1677.87 735.802C1678.72 736.173 1679.68 736.358 1680.74 736.358C1681.16 736.358 1681.59 736.308 1682.04 736.208C1682.49 736.107 1682.92 735.953 1683.34 735.745C1683.77 735.537 1684.17 735.275 1684.56 734.959C1684.94 734.642 1685.28 734.261 1685.57 733.813L1686.82 734.762V734.762Z" fill="#131C2B"/>
<path fill-rule="evenodd" clip-rule="evenodd" d="M1706.71 720.953H1716.71V722.341H1708.24V728.17H1716.18V729.558H1708.24V735.941H1717.08V737.329H1706.71L1706.71 720.953V720.953Z" fill="#131C2B"/>
<path fill-rule="evenodd" clip-rule="evenodd" d="M1737.95 734.299C1738.35 734.994 1738.86 735.51 1739.51 735.849C1740.14 736.189 1740.87 736.358 1741.69 736.358C1742.2 736.358 1742.67 736.281 1743.12 736.127C1743.57 735.973 1743.96 735.756 1744.29 735.479C1744.62 735.202 1744.88 734.866 1745.07 734.473C1745.26 734.08 1745.36 733.636 1745.36 733.143C1745.36 732.572 1745.24 732.102 1745 731.732C1744.76 731.362 1744.44 731.058 1744.04 730.818C1743.64 730.579 1743.19 730.376 1742.69 730.205C1742.19 730.036 1741.68 729.866 1741.15 729.697C1740.61 729.527 1740.1 729.334 1739.6 729.119C1739.1 728.903 1738.65 728.62 1738.25 728.274C1737.84 727.927 1737.53 727.491 1737.29 726.967C1737.05 726.443 1736.93 725.796 1736.93 725.024C1736.93 724.299 1737.07 723.655 1737.36 723.093C1737.64 722.529 1738.03 722.06 1738.51 721.681C1739 721.304 1739.55 721.018 1740.19 720.826C1740.82 720.633 1741.48 720.537 1742.17 720.537C1743.07 720.537 1743.89 720.695 1744.66 721.01C1745.42 721.327 1746.08 721.855 1746.63 722.595L1745.31 723.544C1744.93 723.004 1744.48 722.599 1743.96 722.33C1743.45 722.06 1742.84 721.924 1742.13 721.924C1741.63 721.924 1741.16 721.991 1740.72 722.121C1740.27 722.253 1739.88 722.445 1739.55 722.699C1739.22 722.954 1738.95 723.274 1738.75 723.659C1738.55 724.045 1738.45 724.5 1738.45 725.024C1738.45 725.841 1738.66 726.47 1739.08 726.909C1739.49 727.349 1740.01 727.695 1740.64 727.95C1741.26 728.205 1741.94 728.428 1742.67 728.62C1743.4 728.813 1744.08 729.072 1744.7 729.395C1745.33 729.719 1745.85 730.17 1746.26 730.748C1746.68 731.327 1746.88 732.125 1746.88 733.143C1746.88 733.882 1746.75 734.539 1746.47 735.109C1746.19 735.679 1745.82 736.162 1745.35 736.555C1744.88 736.948 1744.34 737.245 1743.72 737.445C1743.1 737.646 1742.46 737.746 1741.8 737.746C1740.73 737.746 1739.73 737.556 1738.82 737.179C1737.91 736.801 1737.14 736.165 1736.49 735.27L1737.95 734.299V734.299Z" fill="#131C2B"/>
</svg>
