<svg width="280" height="170" viewBox="0 0 280 170" fill="none" xmlns="http://www.w3.org/2000/svg">
<mask id="mask0" mask-type="alpha" maskUnits="userSpaceOnUse" x="10" y="6" width="260" height="151">
<rect x="10" y="6.99982" width="260" height="150" rx="20" fill="#E99382"/>
</mask>
<g mask="url(#mask0)">
<g filter="url(#filter0_d)">
<rect x="10" y="6.99982" width="260" height="150" rx="20" fill="#58D7FF"/>
</g>
<rect x="70" y="4" width="15" height="15" rx="7.5" transform="rotate(90 70 4)" fill="white" fill-opacity="0.2"/>
<rect x="141" y="35" width="15" height="15" rx="7.5" transform="rotate(90 141 35)" fill="#01BFFB"/>
<rect x="280" y="112" width="36" height="36" rx="18" transform="rotate(90 280 112)" fill="#01BFFB"/>
<rect x="185" y="124" width="9" height="9" rx="4.5" transform="rotate(90 185 124)" fill="white" fill-opacity="0.2"/>
<rect x="68" y="151" width="9" height="9" rx="4.5" transform="rotate(90 68 151)" fill="#01BFFB"/>
<path d="M10 112L10 88L168 88C174.627 88 180 93.3726 180 100V100C180 106.627 174.627 112 168 112L10 112Z" fill="#01BFFB"/>
<rect x="205" y="30" width="9" height="9" rx="4.5" transform="rotate(90 205 30)" fill="white" fill-opacity="0.2"/>
</g>
<defs>
<filter id="filter0_d" x="0" y="-0.000183105" width="280" height="170" filterUnits="userSpaceOnUse" color-interpolation-filters="sRGB">
<feFlood flood-opacity="0" result="BackgroundImageFix"/>
<feColorMatrix in="SourceAlpha" type="matrix" values="0 0 0 0 0 0 0 0 0 0 0 0 0 0 0 0 0 0 127 0"/>
<feOffset dy="3"/>
<feGaussianBlur stdDeviation="5"/>
<feColorMatrix type="matrix" values="0 0 0 0 0.196078 0 0 0 0 0.235294 0 0 0 0 0.298039 0 0 0 0.3 0"/>
<feBlend mode="normal" in2="BackgroundImageFix" result="effect1_dropShadow"/>
<feBlend mode="normal" in="SourceGraphic" in2="effect1_dropShadow" result="shape"/>
</filter>
</defs>
</svg>
