<svg width="30" height="30" viewBox="0 0 30 30" fill="none" xmlns="http://www.w3.org/2000/svg">
<g clip-path="url(#clip0)">
<path d="M29.0212 17.0815H28.7813C28.5769 14.5484 26.6081 12.5084 24.1087 12.1915L22.9088 9.21401C23.3063 9.09026 23.595 8.71901 23.595 8.28026C23.595 7.74026 23.1563 7.30151 22.6163 7.30151H16.3162C14.7825 7.30151 13.3538 8.06089 12.4931 9.33026L10.5881 12.1465H8.41312C5.6025 12.1465 2.85375 12.9284 0.463125 14.4078C0.174375 14.5859 0 14.9009 0 15.2403V17.464C0 18.8665 0.973125 20.0478 2.28188 20.3646C2.67 21.7109 3.91312 22.699 5.385 22.699C6.825 22.699 8.04563 21.7521 8.46188 20.449H20.0269C20.4431 21.7521 21.6637 22.699 23.1037 22.699C24.5437 22.699 25.7644 21.7521 26.1806 20.449H27.8213C28.3613 20.449 28.8 20.0103 28.8 19.4703V19.039H29.0212C29.5612 19.039 30 18.6003 30 18.0603C30 17.5203 29.5612 17.0815 29.0212 17.0815V17.0815ZM14.115 10.4271C14.61 9.69589 15.4331 9.25901 16.3162 9.25901H20.8294C20.8406 9.30776 20.8556 9.35651 20.8744 9.40526L21.9788 12.1465H19.1869V11.3496C19.1869 10.879 18.8063 10.4984 18.3356 10.4984C17.865 10.4984 17.4844 10.879 17.4844 11.3496V12.1465H12.9506L14.1131 10.4271H14.115ZM5.38313 20.7415C4.68188 20.7415 4.11188 20.1715 4.11188 19.4703C4.11188 18.769 4.68188 18.199 5.38313 18.199C6.08438 18.199 6.65438 18.769 6.65438 19.4703C6.65438 20.1715 6.08438 20.7415 5.38313 20.7415ZM23.1037 20.7415C22.4025 20.7415 21.8325 20.1715 21.8325 19.4703C21.8325 18.769 22.4025 18.199 23.1037 18.199C23.805 18.199 24.375 18.769 24.375 19.4703C24.375 20.1715 23.805 20.7415 23.1037 20.7415ZM26.8425 18.4915H26.1806C25.7644 17.1884 24.5437 16.2415 23.1037 16.2415C21.6637 16.2415 20.4431 17.1884 20.0269 18.4915H8.46188C8.04563 17.1884 6.825 16.2415 5.385 16.2415C4.02 16.2415 2.85188 17.0928 2.37938 18.2909C2.12438 18.1034 1.95937 17.8034 1.95937 17.464V15.799C3.92812 14.689 6.14812 14.104 8.415 14.104H23.4244C23.4263 14.104 23.4281 14.104 23.4319 14.104C23.4356 14.104 23.4337 14.104 23.4356 14.104C25.3162 14.1059 26.8444 15.6359 26.8444 17.5165V18.4896L26.8425 18.4915Z" fill="white"/>
<path d="M19.7568 14.7921H19.0237C18.7125 14.7921 18.4594 15.0452 18.4594 15.3565C18.4594 15.6677 18.7125 15.9209 19.0237 15.9209H19.7568C20.0681 15.9209 20.3212 15.6677 20.3212 15.3565C20.3212 15.0452 20.0681 14.7921 19.7568 14.7921V14.7921Z" fill="white"/>
</g>
<defs>
<clipPath id="clip0">
<rect width="30" height="30" fill="white" transform="translate(0 0.000244141)"/>
</clipPath>
</defs>
</svg>
