<svg width="30" height="30" viewBox="0 0 30 30" fill="none" xmlns="http://www.w3.org/2000/svg">
<g clip-path="url(#clip0)">
<path d="M11.25 22.5C5.04562 22.5 0 17.4544 0 11.25C0 5.04562 5.04562 0 11.25 0C17.4544 0 22.5 5.04562 22.5 11.25C22.5 17.4544 17.4544 22.5 11.25 22.5ZM11.25 3.75C7.11375 3.75 3.75 7.11375 3.75 11.25C3.75 15.3863 7.11375 18.75 11.25 18.75C15.3863 18.75 18.75 15.3863 18.75 11.25C18.75 7.11375 15.3863 3.75 11.25 3.75Z" fill="white"/>
<path d="M28.125 30C27.645 30 27.165 29.8163 26.7994 29.4506L17.4244 20.0756C16.6912 19.3425 16.6912 18.1575 17.4244 17.4244C18.1575 16.6913 19.3425 16.6913 20.0756 17.4244L29.4506 26.7994C30.1837 27.5325 30.1837 28.7175 29.4506 29.4506C29.085 29.8163 28.605 30 28.125 30V30Z" fill="white"/>
</g>
<defs>
<clipPath id="clip0">
<rect width="30" height="30" fill="white"/>
</clipPath>
</defs>
</svg>
