<svg width="30" height="30" viewBox="0 0 30 30" fill="none" xmlns="http://www.w3.org/2000/svg">
<g clip-path="url(#clip0)">
<path d="M29.0212 17.0812H28.7813C28.5769 14.5481 26.6081 12.5081 24.1087 12.1912L22.9088 9.21374C23.3063 9.08999 23.595 8.71874 23.595 8.27999C23.595 7.73999 23.1563 7.30124 22.6163 7.30124H16.3162C14.7825 7.30124 13.3538 8.06061 12.4931 9.32999L10.5881 12.1462H8.41312C5.6025 12.1462 2.85375 12.9281 0.463125 14.4075C0.174375 14.5856 0 14.9006 0 15.24V17.4637C0 18.8662 0.973125 20.0475 2.28188 20.3644C2.67 21.7106 3.91312 22.6987 5.385 22.6987C6.825 22.6987 8.04563 21.7519 8.46188 20.4487H20.0269C20.4431 21.7519 21.6637 22.6987 23.1037 22.6987C24.5437 22.6987 25.7644 21.7519 26.1806 20.4487H27.8213C28.3613 20.4487 28.8 20.01 28.8 19.47V19.0387H29.0212C29.5612 19.0387 30 18.6 30 18.06C30 17.52 29.5612 17.0812 29.0212 17.0812V17.0812ZM14.115 10.4269C14.61 9.69561 15.4331 9.25874 16.3162 9.25874H20.8294C20.8406 9.30749 20.8556 9.35624 20.8744 9.40499L21.9788 12.1462H19.1869V11.3494C19.1869 10.8787 18.8063 10.4981 18.3356 10.4981C17.865 10.4981 17.4844 10.8787 17.4844 11.3494V12.1462H12.9506L14.1131 10.4269H14.115ZM5.38313 20.7412C4.68188 20.7412 4.11188 20.1712 4.11188 19.47C4.11188 18.7687 4.68188 18.1987 5.38313 18.1987C6.08438 18.1987 6.65438 18.7687 6.65438 19.47C6.65438 20.1712 6.08438 20.7412 5.38313 20.7412ZM23.1037 20.7412C22.4025 20.7412 21.8325 20.1712 21.8325 19.47C21.8325 18.7687 22.4025 18.1987 23.1037 18.1987C23.805 18.1987 24.375 18.7687 24.375 19.47C24.375 20.1712 23.805 20.7412 23.1037 20.7412ZM26.8425 18.4912H26.1806C25.7644 17.1881 24.5437 16.2412 23.1037 16.2412C21.6637 16.2412 20.4431 17.1881 20.0269 18.4912H8.46188C8.04563 17.1881 6.825 16.2412 5.385 16.2412C4.02 16.2412 2.85188 17.0925 2.37938 18.2906C2.12438 18.1031 1.95937 17.8031 1.95937 17.4637V15.7987C3.92812 14.6887 6.14812 14.1037 8.415 14.1037H23.4244C23.4263 14.1037 23.4281 14.1037 23.4319 14.1037C23.4356 14.1037 23.4337 14.1037 23.4356 14.1037C25.3162 14.1056 26.8444 15.6356 26.8444 17.5162V18.4894L26.8425 18.4912Z" fill="white"/>
<path d="M19.7568 14.7919H19.0237C18.7125 14.7919 18.4594 15.045 18.4594 15.3562C18.4594 15.6675 18.7125 15.9206 19.0237 15.9206H19.7568C20.0681 15.9206 20.3212 15.6675 20.3212 15.3562C20.3212 15.045 20.0681 14.7919 19.7568 14.7919V14.7919Z" fill="white"/>
</g>
<defs>
<clipPath id="clip0">
<rect width="30" height="30" fill="white"/>
</clipPath>
</defs>
</svg>
