<svg width="30" height="30" viewBox="0 0 30 30" fill="none" xmlns="http://www.w3.org/2000/svg">
<path d="M9.375 16.875C9.375 15.8395 10.2145 15 11.25 15C12.2855 15 13.125 15.8395 13.125 16.875C13.125 17.9105 12.2855 18.75 11.25 18.75C10.2145 18.75 9.375 17.9105 9.375 16.875Z" fill="white"/>
<path d="M18.75 15C17.7145 15 16.875 15.8395 16.875 16.875C16.875 17.9105 17.7145 18.75 18.75 18.75C19.7855 18.75 20.625 17.9105 20.625 16.875C20.625 15.8395 19.7855 15 18.75 15Z" fill="white"/>
<path fill-rule="evenodd" clip-rule="evenodd" d="M7.5 3.28125C7.5 2.5046 8.1296 1.875 8.90625 1.875C9.6829 1.875 10.3125 2.5046 10.3125 3.28125V7.5H18.75V3.28125C18.75 2.5046 19.3796 1.875 20.1562 1.875C20.9329 1.875 21.5625 2.5046 21.5625 3.28125V7.5H22.5C24.5711 7.5 26.25 9.17893 26.25 11.25V13.125H28.125C29.1605 13.125 30 13.9645 30 15V18.75C30 19.7855 29.1605 20.625 28.125 20.625H26.25V22.5C26.25 24.5711 24.5711 26.25 22.5 26.25H7.5C5.42893 26.25 3.75 24.5711 3.75 22.5V20.625H1.875C0.839466 20.625 0 19.7855 0 18.75V15C0 13.9645 0.839466 13.125 1.875 13.125H3.75V11.25C3.75 9.17893 5.42893 7.5 7.5 7.5V3.28125ZM7.5 10.3125H22.5C23.0178 10.3125 23.4375 10.7322 23.4375 11.25V22.5C23.4375 23.0178 23.0178 23.4375 22.5 23.4375H7.5C6.98223 23.4375 6.5625 23.0178 6.5625 22.5V11.25C6.5625 10.7322 6.98223 10.3125 7.5 10.3125ZM3.75 15H1.875L1.875 18.75H3.75V15ZM26.25 18.75H28.125V15H26.25V18.75Z" fill="white"/>
</svg>
