<svg width="30" height="30" viewBox="0 0 30 30" fill="none" xmlns="http://www.w3.org/2000/svg">
<g clip-path="url(#clip0)">
<path d="M30 17.7487C30 15.42 28.485 13.455 26.3963 12.735C26.3963 12.0019 26.3963 11.2537 26.3963 11.2537C26.3963 5.17687 21.5119 0.234375 15.5044 0.234375C9.49688 0.234375 4.6125 5.17687 4.6125 11.2537V12.4556C2.01563 12.8081 0 15.0169 0 17.7075C0 20.6419 2.38875 23.0325 5.32688 23.0325C7.125 23.0325 8.24062 20.9925 8.24062 17.7075C8.24062 15.6488 7.80188 14.0813 7.03125 13.1963V11.2556C7.03125 6.39562 10.8319 2.43937 15.5025 2.43937C20.1731 2.43937 23.9738 6.39375 23.9738 11.2556V12.5475C22.5919 13.0181 21.7575 14.9175 21.7575 17.7506C21.7575 20.535 22.5656 22.41 23.9062 22.92C23.6081 24.5644 21.8569 25.8487 19.65 26.0287C19.215 25.38 18.5119 24.9262 17.6737 24.9262C16.3387 24.9262 15.2531 26.0081 15.2531 27.3469C15.2531 28.6819 16.3369 29.7675 17.6737 29.7675C18.84 29.7675 19.77 28.9237 19.9969 27.8231C23.4356 27.51 26.1206 25.4044 26.3456 22.7794C28.4587 22.0725 29.9963 20.0981 29.9963 17.7506L30 17.7487ZM4.95375 19.9031C3.77625 19.8619 2.83313 18.8906 2.83313 17.7056C2.83313 16.5206 3.77625 15.5494 4.95375 15.5081C5.12812 15.7087 5.4075 16.4794 5.4075 17.7056C5.4075 18.9319 5.13 19.7025 4.95375 19.9031ZM25.0462 19.9444C24.8719 19.7438 24.5925 18.9731 24.5925 17.7469C24.5925 16.5206 24.87 15.75 25.0462 15.5494C26.2237 15.5906 27.1669 16.5619 27.1669 17.7469C27.1669 18.9319 26.2237 19.9013 25.0462 19.9444Z" fill="white"/>
</g>
<defs>
<clipPath id="clip0">
<rect width="30" height="30" fill="white"/>
</clipPath>
</defs>
</svg>
