<svg width="280" height="170" viewBox="0 0 280 170" fill="none" xmlns="http://www.w3.org/2000/svg">
<mask id="mask0" mask-type="alpha" maskUnits="userSpaceOnUse" x="9" y="6" width="261" height="151">
<rect x="9.99988" y="6.99982" width="260" height="150" rx="20" fill="#E99382"/>
</mask>
<g mask="url(#mask0)">
<g filter="url(#filter0_d)">
<rect x="9.99988" y="6.99982" width="260" height="150" rx="20" fill="#E99382"/>
</g>
<rect x="50" y="123" width="15" height="15" rx="7.5" transform="rotate(90 50 123)" fill="#E7806A"/>
<rect x="95" y="35" width="15" height="15" rx="7.5" transform="rotate(90 95 35)" fill="white" fill-opacity="0.2"/>
<rect x="185" y="52" width="15" height="15" rx="7.5" transform="rotate(90 185 52)" fill="#E8806A"/>
<rect x="227" y="19" width="15" height="15" rx="7.5" transform="rotate(90 227 19)" fill="#E87E6C"/>
<rect x="185" y="124" width="9" height="9" rx="4.5" transform="rotate(90 185 124)" fill="white" fill-opacity="0.2"/>
<path d="M10 112L10 88L190 88C196.627 88 202 93.3726 202 100V100C202 106.627 196.627 112 190 112L10 112Z" fill="#E8806A"/>
</g>
<defs>
<filter id="filter0_d" x="-0.00012207" y="-0.000183105" width="280" height="170" filterUnits="userSpaceOnUse" color-interpolation-filters="sRGB">
<feFlood flood-opacity="0" result="BackgroundImageFix"/>
<feColorMatrix in="SourceAlpha" type="matrix" values="0 0 0 0 0 0 0 0 0 0 0 0 0 0 0 0 0 0 127 0"/>
<feOffset dy="3"/>
<feGaussianBlur stdDeviation="5"/>
<feColorMatrix type="matrix" values="0 0 0 0 0.196078 0 0 0 0 0.235294 0 0 0 0 0.298039 0 0 0 0.3 0"/>
<feBlend mode="normal" in2="BackgroundImageFix" result="effect1_dropShadow"/>
<feBlend mode="normal" in="SourceGraphic" in2="effect1_dropShadow" result="shape"/>
</filter>
</defs>
</svg>
