<svg width="40" height="40" viewBox="0 0 40 40" fill="none" xmlns="http://www.w3.org/2000/svg">
<rect width="40" height="40" rx="8" fill="white"/>
<path fill-rule="evenodd" clip-rule="evenodd" d="M32.2963 0.00537968C32.198 0.00180054 32.0992 0 32 0H24.0261C24.078 0.285898 24.104 0.608564 24.104 0.967999V9.368C24.104 10.5067 24.384 11.5893 24.944 12.616C25.224 13.1387 25.644 13.5587 26.204 13.876C26.764 14.1933 27.4267 14.352 28.192 14.352C29.5547 14.352 30.572 13.848 31.244 12.84C31.916 11.832 32.252 10.6653 32.252 9.34V0.771999C32.252 0.482516 32.2668 0.226976 32.2963 0.00537968ZM19.1446 0H8C3.58172 0 0 3.58172 0 8V32C0 35.2803 1.97434 38.0995 4.79955 39.3341C4.75667 39.1101 4.71081 38.8146 4.66198 38.4475L3.26139 27.9203C3.20336 27.4841 3.16975 27.1557 3.16056 26.935C3.16856 26.6918 3.2334 26.4209 3.35507 26.1222C3.56669 25.5897 4.29699 25.2403 5.54599 25.0741C6.75533 24.9132 7.52911 25.0423 7.86733 25.4614C8.11042 25.772 8.26362 26.1653 8.32693 26.6411C8.38776 26.4917 8.53981 26.2697 8.78308 25.9751C9.02634 25.6804 9.26629 25.4367 9.50292 25.2438C10.1163 24.6981 10.8294 24.3712 11.6423 24.2631C13.6248 23.9993 15.3718 24.5436 16.8834 25.8961C18.4122 27.2261 19.3216 28.9815 19.6118 31.1623L20.3081 36.3962C20.3688 36.8521 20.3951 37.2017 20.3871 37.4449C20.3963 37.6656 20.35 37.924 20.2481 38.22C20.0418 38.7922 19.3042 39.1627 18.0354 39.3315C16.6278 39.5188 15.7661 39.2602 15.4505 38.5557C15.2867 38.2345 15.1599 37.7368 15.0703 37.0628L14.3739 31.8289C14.2658 31.016 13.9435 30.4133 13.407 30.0206C12.8904 29.6253 12.2355 29.4804 11.4425 29.5859C10.6693 29.6888 10.0666 30.0111 9.63424 30.5528C9.22173 31.0919 9.06691 31.7481 9.16978 32.5213L9.87008 37.7849C9.93074 38.2409 9.95708 38.5904 9.94908 38.8336C9.95827 39.0543 9.90202 39.314 9.78035 39.6127C9.73402 39.7542 9.65432 39.8833 9.54122 40H32C35.0561 40 37.712 38.2863 39.0591 35.7675C38.2725 36.5576 37.0179 37.3765 35.2954 38.2243C33.9675 38.8779 32.6728 39.2364 31.4112 39.3001C30.1588 39.3369 29.06 39.1198 28.1148 38.6488C26.269 37.7517 24.9044 36.4059 24.0213 34.6115C22.9085 32.3505 22.7476 30.1894 23.5387 28.1282C24.339 26.0402 25.8337 24.4575 28.0229 23.38C30.5172 22.1524 32.7803 22.1309 34.8122 23.3153C35.8815 23.9482 36.69 24.8209 37.2375 25.9334C37.7763 27.028 37.9 27.9814 37.6087 28.7935C37.3264 29.5788 36.8534 30.1349 36.1894 30.4617L29.8102 33.6013C30.0575 34.1038 30.5611 34.3798 31.3211 34.4292C32.081 34.4787 32.7571 34.3578 33.3493 34.0663C34.3901 33.5541 35.1535 33.0446 35.6397 32.5378L35.8828 32.2844C36.2163 31.8751 36.5266 31.5997 36.8138 31.4584C37.388 31.1758 38.0802 31.3367 38.8903 31.9411C39.362 32.3107 39.6818 32.6661 39.8496 33.007C39.8743 33.0571 39.8967 33.1074 39.9168 33.1579C39.9716 32.7798 40 32.3932 40 32V8C40 5.57075 38.9172 3.39438 37.208 1.92719V9.424C37.208 11.888 36.4427 14.128 34.912 16.144C34.1653 17.096 33.204 17.8707 32.028 18.468C30.852 19.0467 29.5453 19.336 28.108 19.336C26.6893 19.336 25.392 19.0373 24.216 18.44C23.0587 17.8427 22.116 17.0587 21.388 16.088C19.876 14.1093 19.12 11.8693 19.12 9.368V0.939999C19.12 0.520052 19.1282 0.206719 19.1446 0ZM10.991 5.771C12.791 5.771 14.285 6.464 15.473 7.85C16.679 9.218 17.282 10.892 17.282 12.872V17.624C17.282 18.038 17.264 18.353 17.228 18.569C17.21 18.767 17.138 18.992 17.012 19.244C16.76 19.73 16.058 19.973 14.906 19.973C13.628 19.973 12.89 19.64 12.692 18.974C12.584 18.668 12.53 18.209 12.53 17.597V12.845C12.53 12.107 12.314 11.531 11.882 11.117C11.468 10.703 10.901 10.496 10.181 10.496C9.479 10.496 8.903 10.712 8.453 11.144C8.021 11.576 7.805 12.143 7.805 12.845V17.624C7.805 18.038 7.787 18.353 7.751 18.569C7.733 18.767 7.652 18.992 7.508 19.244C7.274 19.73 6.581 19.973 5.429 19.973C4.295 19.973 3.602 19.73 3.35 19.244C3.224 18.974 3.143 18.74 3.107 18.542C3.089 18.326 3.08 18.011 3.08 17.597V8.039C3.08 7.643 3.089 7.346 3.107 7.148C3.143 6.932 3.233 6.698 3.377 6.446C3.629 5.996 4.322 5.771 5.456 5.771C6.554 5.771 7.229 5.978 7.481 6.392C7.661 6.698 7.751 7.067 7.751 7.499C7.823 7.373 7.985 7.193 8.237 6.959C8.489 6.725 8.732 6.536 8.966 6.392C9.578 5.978 10.253 5.771 10.991 5.771ZM31.9423 29.5092C32.6242 29.1736 32.8239 28.7187 32.5412 28.1445C32.3381 27.7318 32.0132 27.4793 31.5666 27.387C31.1379 27.286 30.6274 27.3811 30.0353 27.6726C29.4611 27.9552 29.0061 28.4801 28.6703 29.2472C28.3257 29.9963 28.2859 30.6401 28.5508 31.1784L31.9423 29.5092Z" fill="#B71212"/>
</svg>
