<svg width="280" height="170" viewBox="0 0 280 170" fill="none" xmlns="http://www.w3.org/2000/svg">
<mask id="mask0" mask-type="alpha" maskUnits="userSpaceOnUse" x="10" y="6" width="260" height="151">
<rect x="10" y="6.99982" width="260" height="150" rx="20" fill="#E99382"/>
</mask>
<g mask="url(#mask0)">
<g filter="url(#filter0_d)">
<rect x="10" y="6.99982" width="260" height="150" rx="20" fill="#85D3D8"/>
</g>
<rect x="267" y="88" width="24" height="269" rx="12" transform="rotate(90 267 88)" fill="#66C3C9"/>
<rect x="73" y="13" width="15" height="15" rx="7.5" transform="rotate(90 73 13)" fill="white" fill-opacity="0.2"/>
<rect x="182" y="79" width="15" height="15" rx="7.5" transform="rotate(90 182 79)" fill="white" fill-opacity="0.2"/>
<rect x="226" y="145" width="15" height="15" rx="7.5" transform="rotate(90 226 145)" fill="white" fill-opacity="0.2"/>
<rect x="286" y="47" width="40" height="40" rx="20" transform="rotate(90 286 47)" fill="#66C3C9"/>
<rect x="189" y="21" width="10" height="10" rx="5" transform="rotate(90 189 21)" fill="white" fill-opacity="0.2"/>
<rect x="51" y="126" width="9" height="9" rx="4.5" transform="rotate(90 51 126)" fill="#66C3C9"/>
</g>
<defs>
<filter id="filter0_d" x="0" y="-0.000183105" width="280" height="170" filterUnits="userSpaceOnUse" color-interpolation-filters="sRGB">
<feFlood flood-opacity="0" result="BackgroundImageFix"/>
<feColorMatrix in="SourceAlpha" type="matrix" values="0 0 0 0 0 0 0 0 0 0 0 0 0 0 0 0 0 0 127 0"/>
<feOffset dy="3"/>
<feGaussianBlur stdDeviation="5"/>
<feColorMatrix type="matrix" values="0 0 0 0 0.196078 0 0 0 0 0.235294 0 0 0 0 0.298039 0 0 0 0.3 0"/>
<feBlend mode="normal" in2="BackgroundImageFix" result="effect1_dropShadow"/>
<feBlend mode="normal" in="SourceGraphic" in2="effect1_dropShadow" result="shape"/>
</filter>
</defs>
</svg>
