<svg width="30" height="30" viewBox="0 0 30 30" fill="none" xmlns="http://www.w3.org/2000/svg">
<path d="M9.375 16.8752C9.375 15.8397 10.2145 15.0002 11.25 15.0002C12.2855 15.0002 13.125 15.8397 13.125 16.8752C13.125 17.9108 12.2855 18.7502 11.25 18.7502C10.2145 18.7502 9.375 17.9108 9.375 16.8752Z" fill="white"/>
<path d="M18.75 15.0002C17.7145 15.0002 16.875 15.8397 16.875 16.8752C16.875 17.9108 17.7145 18.7502 18.75 18.7502C19.7855 18.7502 20.625 17.9108 20.625 16.8752C20.625 15.8397 19.7855 15.0002 18.75 15.0002Z" fill="white"/>
<path fill-rule="evenodd" clip-rule="evenodd" d="M7.5 3.28149C7.5 2.50484 8.1296 1.87524 8.90625 1.87524C9.6829 1.87524 10.3125 2.50484 10.3125 3.28149V7.50024H18.75V3.28149C18.75 2.50484 19.3796 1.87524 20.1562 1.87524C20.9329 1.87524 21.5625 2.50484 21.5625 3.28149V7.50024H22.5C24.5711 7.50024 26.25 9.17918 26.25 11.2502V13.1252H28.125C29.1605 13.1252 30 13.9647 30 15.0002V18.7502C30 19.7858 29.1605 20.6252 28.125 20.6252H26.25V22.5002C26.25 24.5713 24.5711 26.2502 22.5 26.2502H7.5C5.42893 26.2502 3.75 24.5713 3.75 22.5002V20.6252H1.875C0.839466 20.6252 0 19.7858 0 18.7502V15.0002C0 13.9647 0.839466 13.1252 1.875 13.1252H3.75V11.2502C3.75 9.17918 5.42893 7.50024 7.5 7.50024V3.28149ZM7.5 10.3127H22.5C23.0178 10.3127 23.4375 10.7325 23.4375 11.2502V22.5002C23.4375 23.018 23.0178 23.4377 22.5 23.4377H7.5C6.98223 23.4377 6.5625 23.018 6.5625 22.5002V11.2502C6.5625 10.7325 6.98223 10.3127 7.5 10.3127ZM3.75 15.0002H1.875L1.875 18.7502H3.75V15.0002ZM26.25 18.7502H28.125V15.0002H26.25V18.7502Z" fill="white"/>
</svg>
