<svg width="30" height="30" viewBox="0 0 30 30" fill="none" xmlns="http://www.w3.org/2000/svg">
<g clip-path="url(#clip0)">
<path d="M11.25 22.5002C5.04562 22.5002 0 17.4546 0 11.2502C0 5.04587 5.04562 0.000244141 11.25 0.000244141C17.4544 0.000244141 22.5 5.04587 22.5 11.2502C22.5 17.4546 17.4544 22.5002 11.25 22.5002ZM11.25 3.75024C7.11375 3.75024 3.75 7.11399 3.75 11.2502C3.75 15.3865 7.11375 18.7502 11.25 18.7502C15.3863 18.7502 18.75 15.3865 18.75 11.2502C18.75 7.11399 15.3863 3.75024 11.25 3.75024Z" fill="white"/>
<path d="M28.125 30.0002C27.645 30.0002 27.165 29.8165 26.7994 29.4508L17.4244 20.0758C16.6912 19.3427 16.6912 18.1577 17.4244 17.4246C18.1575 16.6915 19.3425 16.6915 20.0756 17.4246L29.4506 26.7996C30.1837 27.5327 30.1837 28.7177 29.4506 29.4508C29.085 29.8165 28.605 30.0002 28.125 30.0002V30.0002Z" fill="white"/>
</g>
<defs>
<clipPath id="clip0">
<rect width="30" height="30" fill="white" transform="translate(0 0.000244141)"/>
</clipPath>
</defs>
</svg>
